G04 EAGLE Gerber RS-274X export*
G75*
%MOMM*%
%FSLAX34Y34*%
%LPD*%
%IN*%
%IPPOS*%
%AMOC8*
5,1,8,0,0,1.08239X$1,22.5*%
G01*
%ADD10C,0.254000*%


D10*
X0Y0D02*
X1660400Y0D01*
X1660400Y1498500D01*
X0Y1498500D01*
X0Y0D01*
X337500Y799496D02*
X337427Y798289D01*
X337281Y797089D01*
X337063Y795900D01*
X336774Y794727D01*
X336415Y793573D01*
X335986Y792443D01*
X335490Y791341D01*
X334928Y790270D01*
X334303Y789236D01*
X333616Y788241D01*
X332871Y787290D01*
X332069Y786385D01*
X331215Y785531D01*
X330310Y784729D01*
X329359Y783984D01*
X328364Y783297D01*
X327330Y782672D01*
X326259Y782110D01*
X325157Y781614D01*
X324027Y781185D01*
X322873Y780826D01*
X321700Y780537D01*
X320511Y780319D01*
X319311Y780173D01*
X318104Y780100D01*
X316896Y780100D01*
X315689Y780173D01*
X314489Y780319D01*
X313300Y780537D01*
X312127Y780826D01*
X310973Y781185D01*
X309843Y781614D01*
X308741Y782110D01*
X307670Y782672D01*
X306636Y783297D01*
X305641Y783984D01*
X304690Y784729D01*
X303785Y785531D01*
X302931Y786385D01*
X302129Y787290D01*
X301384Y788241D01*
X300697Y789236D01*
X300072Y790270D01*
X299510Y791341D01*
X299014Y792443D01*
X298585Y793573D01*
X298226Y794727D01*
X297937Y795900D01*
X297719Y797089D01*
X297573Y798289D01*
X297500Y799496D01*
X297500Y800704D01*
X297573Y801911D01*
X297719Y803111D01*
X297937Y804300D01*
X298226Y805473D01*
X298585Y806627D01*
X299014Y807757D01*
X299510Y808859D01*
X300072Y809930D01*
X300697Y810964D01*
X301384Y811959D01*
X302129Y812910D01*
X302931Y813815D01*
X303785Y814669D01*
X304690Y815471D01*
X305641Y816216D01*
X306636Y816903D01*
X307670Y817528D01*
X308741Y818090D01*
X309843Y818586D01*
X310973Y819015D01*
X312127Y819374D01*
X313300Y819663D01*
X314489Y819881D01*
X315689Y820027D01*
X316896Y820100D01*
X318104Y820100D01*
X319311Y820027D01*
X320511Y819881D01*
X321700Y819663D01*
X322873Y819374D01*
X324027Y819015D01*
X325157Y818586D01*
X326259Y818090D01*
X327330Y817528D01*
X328364Y816903D01*
X329359Y816216D01*
X330310Y815471D01*
X331215Y814669D01*
X332069Y813815D01*
X332871Y812910D01*
X333616Y811959D01*
X334303Y810964D01*
X334928Y809930D01*
X335490Y808859D01*
X335986Y807757D01*
X336415Y806627D01*
X336774Y805473D01*
X337063Y804300D01*
X337281Y803111D01*
X337427Y801911D01*
X337500Y800704D01*
X337500Y799496D01*
X718500Y608996D02*
X718427Y607789D01*
X718281Y606589D01*
X718063Y605400D01*
X717774Y604227D01*
X717415Y603073D01*
X716986Y601943D01*
X716490Y600841D01*
X715928Y599770D01*
X715303Y598736D01*
X714616Y597741D01*
X713871Y596790D01*
X713069Y595885D01*
X712215Y595031D01*
X711310Y594229D01*
X710359Y593484D01*
X709364Y592797D01*
X708330Y592172D01*
X707259Y591610D01*
X706157Y591114D01*
X705027Y590685D01*
X703873Y590326D01*
X702700Y590037D01*
X701511Y589819D01*
X700311Y589673D01*
X699104Y589600D01*
X697896Y589600D01*
X696689Y589673D01*
X695489Y589819D01*
X694300Y590037D01*
X693127Y590326D01*
X691973Y590685D01*
X690843Y591114D01*
X689741Y591610D01*
X688670Y592172D01*
X687636Y592797D01*
X686641Y593484D01*
X685690Y594229D01*
X684785Y595031D01*
X683931Y595885D01*
X683129Y596790D01*
X682384Y597741D01*
X681697Y598736D01*
X681072Y599770D01*
X680510Y600841D01*
X680014Y601943D01*
X679585Y603073D01*
X679226Y604227D01*
X678937Y605400D01*
X678719Y606589D01*
X678573Y607789D01*
X678500Y608996D01*
X678500Y610204D01*
X678573Y611411D01*
X678719Y612611D01*
X678937Y613800D01*
X679226Y614973D01*
X679585Y616127D01*
X680014Y617257D01*
X680510Y618359D01*
X681072Y619430D01*
X681697Y620464D01*
X682384Y621459D01*
X683129Y622410D01*
X683931Y623315D01*
X684785Y624169D01*
X685690Y624971D01*
X686641Y625716D01*
X687636Y626403D01*
X688670Y627028D01*
X689741Y627590D01*
X690843Y628086D01*
X691973Y628515D01*
X693127Y628874D01*
X694300Y629163D01*
X695489Y629381D01*
X696689Y629527D01*
X697896Y629600D01*
X699104Y629600D01*
X700311Y629527D01*
X701511Y629381D01*
X702700Y629163D01*
X703873Y628874D01*
X705027Y628515D01*
X706157Y628086D01*
X707259Y627590D01*
X708330Y627028D01*
X709364Y626403D01*
X710359Y625716D01*
X711310Y624971D01*
X712215Y624169D01*
X713069Y623315D01*
X713871Y622410D01*
X714616Y621459D01*
X715303Y620464D01*
X715928Y619430D01*
X716490Y618359D01*
X716986Y617257D01*
X717415Y616127D01*
X717774Y614973D01*
X718063Y613800D01*
X718281Y612611D01*
X718427Y611411D01*
X718500Y610204D01*
X718500Y608996D01*
X337500Y418496D02*
X337427Y417289D01*
X337281Y416089D01*
X337063Y414900D01*
X336774Y413727D01*
X336415Y412573D01*
X335986Y411443D01*
X335490Y410341D01*
X334928Y409270D01*
X334303Y408236D01*
X333616Y407241D01*
X332871Y406290D01*
X332069Y405385D01*
X331215Y404531D01*
X330310Y403729D01*
X329359Y402984D01*
X328364Y402297D01*
X327330Y401672D01*
X326259Y401110D01*
X325157Y400614D01*
X324027Y400185D01*
X322873Y399826D01*
X321700Y399537D01*
X320511Y399319D01*
X319311Y399173D01*
X318104Y399100D01*
X316896Y399100D01*
X315689Y399173D01*
X314489Y399319D01*
X313300Y399537D01*
X312127Y399826D01*
X310973Y400185D01*
X309843Y400614D01*
X308741Y401110D01*
X307670Y401672D01*
X306636Y402297D01*
X305641Y402984D01*
X304690Y403729D01*
X303785Y404531D01*
X302931Y405385D01*
X302129Y406290D01*
X301384Y407241D01*
X300697Y408236D01*
X300072Y409270D01*
X299510Y410341D01*
X299014Y411443D01*
X298585Y412573D01*
X298226Y413727D01*
X297937Y414900D01*
X297719Y416089D01*
X297573Y417289D01*
X297500Y418496D01*
X297500Y419704D01*
X297573Y420911D01*
X297719Y422111D01*
X297937Y423300D01*
X298226Y424473D01*
X298585Y425627D01*
X299014Y426757D01*
X299510Y427859D01*
X300072Y428930D01*
X300697Y429964D01*
X301384Y430959D01*
X302129Y431910D01*
X302931Y432815D01*
X303785Y433669D01*
X304690Y434471D01*
X305641Y435216D01*
X306636Y435903D01*
X307670Y436528D01*
X308741Y437090D01*
X309843Y437586D01*
X310973Y438015D01*
X312127Y438374D01*
X313300Y438663D01*
X314489Y438881D01*
X315689Y439027D01*
X316896Y439100D01*
X318104Y439100D01*
X319311Y439027D01*
X320511Y438881D01*
X321700Y438663D01*
X322873Y438374D01*
X324027Y438015D01*
X325157Y437586D01*
X326259Y437090D01*
X327330Y436528D01*
X328364Y435903D01*
X329359Y435216D01*
X330310Y434471D01*
X331215Y433669D01*
X332069Y432815D01*
X332871Y431910D01*
X333616Y430959D01*
X334303Y429964D01*
X334928Y428930D01*
X335490Y427859D01*
X335986Y426757D01*
X336415Y425627D01*
X336774Y424473D01*
X337063Y423300D01*
X337281Y422111D01*
X337427Y420911D01*
X337500Y419704D01*
X337500Y418496D01*
X528000Y418496D02*
X527927Y417289D01*
X527781Y416089D01*
X527563Y414900D01*
X527274Y413727D01*
X526915Y412573D01*
X526486Y411443D01*
X525990Y410341D01*
X525428Y409270D01*
X524803Y408236D01*
X524116Y407241D01*
X523371Y406290D01*
X522569Y405385D01*
X521715Y404531D01*
X520810Y403729D01*
X519859Y402984D01*
X518864Y402297D01*
X517830Y401672D01*
X516759Y401110D01*
X515657Y400614D01*
X514527Y400185D01*
X513373Y399826D01*
X512200Y399537D01*
X511011Y399319D01*
X509811Y399173D01*
X508604Y399100D01*
X507396Y399100D01*
X506189Y399173D01*
X504989Y399319D01*
X503800Y399537D01*
X502627Y399826D01*
X501473Y400185D01*
X500343Y400614D01*
X499241Y401110D01*
X498170Y401672D01*
X497136Y402297D01*
X496141Y402984D01*
X495190Y403729D01*
X494285Y404531D01*
X493431Y405385D01*
X492629Y406290D01*
X491884Y407241D01*
X491197Y408236D01*
X490572Y409270D01*
X490010Y410341D01*
X489514Y411443D01*
X489085Y412573D01*
X488726Y413727D01*
X488437Y414900D01*
X488219Y416089D01*
X488073Y417289D01*
X488000Y418496D01*
X488000Y419704D01*
X488073Y420911D01*
X488219Y422111D01*
X488437Y423300D01*
X488726Y424473D01*
X489085Y425627D01*
X489514Y426757D01*
X490010Y427859D01*
X490572Y428930D01*
X491197Y429964D01*
X491884Y430959D01*
X492629Y431910D01*
X493431Y432815D01*
X494285Y433669D01*
X495190Y434471D01*
X496141Y435216D01*
X497136Y435903D01*
X498170Y436528D01*
X499241Y437090D01*
X500343Y437586D01*
X501473Y438015D01*
X502627Y438374D01*
X503800Y438663D01*
X504989Y438881D01*
X506189Y439027D01*
X507396Y439100D01*
X508604Y439100D01*
X509811Y439027D01*
X511011Y438881D01*
X512200Y438663D01*
X513373Y438374D01*
X514527Y438015D01*
X515657Y437586D01*
X516759Y437090D01*
X517830Y436528D01*
X518864Y435903D01*
X519859Y435216D01*
X520810Y434471D01*
X521715Y433669D01*
X522569Y432815D01*
X523371Y431910D01*
X524116Y430959D01*
X524803Y429964D01*
X525428Y428930D01*
X525990Y427859D01*
X526486Y426757D01*
X526915Y425627D01*
X527274Y424473D01*
X527563Y423300D01*
X527781Y422111D01*
X527927Y420911D01*
X528000Y419704D01*
X528000Y418496D01*
X718500Y418496D02*
X718427Y417289D01*
X718281Y416089D01*
X718063Y414900D01*
X717774Y413727D01*
X717415Y412573D01*
X716986Y411443D01*
X716490Y410341D01*
X715928Y409270D01*
X715303Y408236D01*
X714616Y407241D01*
X713871Y406290D01*
X713069Y405385D01*
X712215Y404531D01*
X711310Y403729D01*
X710359Y402984D01*
X709364Y402297D01*
X708330Y401672D01*
X707259Y401110D01*
X706157Y400614D01*
X705027Y400185D01*
X703873Y399826D01*
X702700Y399537D01*
X701511Y399319D01*
X700311Y399173D01*
X699104Y399100D01*
X697896Y399100D01*
X696689Y399173D01*
X695489Y399319D01*
X694300Y399537D01*
X693127Y399826D01*
X691973Y400185D01*
X690843Y400614D01*
X689741Y401110D01*
X688670Y401672D01*
X687636Y402297D01*
X686641Y402984D01*
X685690Y403729D01*
X684785Y404531D01*
X683931Y405385D01*
X683129Y406290D01*
X682384Y407241D01*
X681697Y408236D01*
X681072Y409270D01*
X680510Y410341D01*
X680014Y411443D01*
X679585Y412573D01*
X679226Y413727D01*
X678937Y414900D01*
X678719Y416089D01*
X678573Y417289D01*
X678500Y418496D01*
X678500Y419704D01*
X678573Y420911D01*
X678719Y422111D01*
X678937Y423300D01*
X679226Y424473D01*
X679585Y425627D01*
X680014Y426757D01*
X680510Y427859D01*
X681072Y428930D01*
X681697Y429964D01*
X682384Y430959D01*
X683129Y431910D01*
X683931Y432815D01*
X684785Y433669D01*
X685690Y434471D01*
X686641Y435216D01*
X687636Y435903D01*
X688670Y436528D01*
X689741Y437090D01*
X690843Y437586D01*
X691973Y438015D01*
X693127Y438374D01*
X694300Y438663D01*
X695489Y438881D01*
X696689Y439027D01*
X697896Y439100D01*
X699104Y439100D01*
X700311Y439027D01*
X701511Y438881D01*
X702700Y438663D01*
X703873Y438374D01*
X705027Y438015D01*
X706157Y437586D01*
X707259Y437090D01*
X708330Y436528D01*
X709364Y435903D01*
X710359Y435216D01*
X711310Y434471D01*
X712215Y433669D01*
X713069Y432815D01*
X713871Y431910D01*
X714616Y430959D01*
X715303Y429964D01*
X715928Y428930D01*
X716490Y427859D01*
X716986Y426757D01*
X717415Y425627D01*
X717774Y424473D01*
X718063Y423300D01*
X718281Y422111D01*
X718427Y420911D01*
X718500Y419704D01*
X718500Y418496D01*
X337500Y227996D02*
X337427Y226789D01*
X337281Y225589D01*
X337063Y224400D01*
X336774Y223227D01*
X336415Y222073D01*
X335986Y220943D01*
X335490Y219841D01*
X334928Y218770D01*
X334303Y217736D01*
X333616Y216741D01*
X332871Y215790D01*
X332069Y214885D01*
X331215Y214031D01*
X330310Y213229D01*
X329359Y212484D01*
X328364Y211797D01*
X327330Y211172D01*
X326259Y210610D01*
X325157Y210114D01*
X324027Y209685D01*
X322873Y209326D01*
X321700Y209037D01*
X320511Y208819D01*
X319311Y208673D01*
X318104Y208600D01*
X316896Y208600D01*
X315689Y208673D01*
X314489Y208819D01*
X313300Y209037D01*
X312127Y209326D01*
X310973Y209685D01*
X309843Y210114D01*
X308741Y210610D01*
X307670Y211172D01*
X306636Y211797D01*
X305641Y212484D01*
X304690Y213229D01*
X303785Y214031D01*
X302931Y214885D01*
X302129Y215790D01*
X301384Y216741D01*
X300697Y217736D01*
X300072Y218770D01*
X299510Y219841D01*
X299014Y220943D01*
X298585Y222073D01*
X298226Y223227D01*
X297937Y224400D01*
X297719Y225589D01*
X297573Y226789D01*
X297500Y227996D01*
X297500Y229204D01*
X297573Y230411D01*
X297719Y231611D01*
X297937Y232800D01*
X298226Y233973D01*
X298585Y235127D01*
X299014Y236257D01*
X299510Y237359D01*
X300072Y238430D01*
X300697Y239464D01*
X301384Y240459D01*
X302129Y241410D01*
X302931Y242315D01*
X303785Y243169D01*
X304690Y243971D01*
X305641Y244716D01*
X306636Y245403D01*
X307670Y246028D01*
X308741Y246590D01*
X309843Y247086D01*
X310973Y247515D01*
X312127Y247874D01*
X313300Y248163D01*
X314489Y248381D01*
X315689Y248527D01*
X316896Y248600D01*
X318104Y248600D01*
X319311Y248527D01*
X320511Y248381D01*
X321700Y248163D01*
X322873Y247874D01*
X324027Y247515D01*
X325157Y247086D01*
X326259Y246590D01*
X327330Y246028D01*
X328364Y245403D01*
X329359Y244716D01*
X330310Y243971D01*
X331215Y243169D01*
X332069Y242315D01*
X332871Y241410D01*
X333616Y240459D01*
X334303Y239464D01*
X334928Y238430D01*
X335490Y237359D01*
X335986Y236257D01*
X336415Y235127D01*
X336774Y233973D01*
X337063Y232800D01*
X337281Y231611D01*
X337427Y230411D01*
X337500Y229204D01*
X337500Y227996D01*
X528000Y227996D02*
X527927Y226789D01*
X527781Y225589D01*
X527563Y224400D01*
X527274Y223227D01*
X526915Y222073D01*
X526486Y220943D01*
X525990Y219841D01*
X525428Y218770D01*
X524803Y217736D01*
X524116Y216741D01*
X523371Y215790D01*
X522569Y214885D01*
X521715Y214031D01*
X520810Y213229D01*
X519859Y212484D01*
X518864Y211797D01*
X517830Y211172D01*
X516759Y210610D01*
X515657Y210114D01*
X514527Y209685D01*
X513373Y209326D01*
X512200Y209037D01*
X511011Y208819D01*
X509811Y208673D01*
X508604Y208600D01*
X507396Y208600D01*
X506189Y208673D01*
X504989Y208819D01*
X503800Y209037D01*
X502627Y209326D01*
X501473Y209685D01*
X500343Y210114D01*
X499241Y210610D01*
X498170Y211172D01*
X497136Y211797D01*
X496141Y212484D01*
X495190Y213229D01*
X494285Y214031D01*
X493431Y214885D01*
X492629Y215790D01*
X491884Y216741D01*
X491197Y217736D01*
X490572Y218770D01*
X490010Y219841D01*
X489514Y220943D01*
X489085Y222073D01*
X488726Y223227D01*
X488437Y224400D01*
X488219Y225589D01*
X488073Y226789D01*
X488000Y227996D01*
X488000Y229204D01*
X488073Y230411D01*
X488219Y231611D01*
X488437Y232800D01*
X488726Y233973D01*
X489085Y235127D01*
X489514Y236257D01*
X490010Y237359D01*
X490572Y238430D01*
X491197Y239464D01*
X491884Y240459D01*
X492629Y241410D01*
X493431Y242315D01*
X494285Y243169D01*
X495190Y243971D01*
X496141Y244716D01*
X497136Y245403D01*
X498170Y246028D01*
X499241Y246590D01*
X500343Y247086D01*
X501473Y247515D01*
X502627Y247874D01*
X503800Y248163D01*
X504989Y248381D01*
X506189Y248527D01*
X507396Y248600D01*
X508604Y248600D01*
X509811Y248527D01*
X511011Y248381D01*
X512200Y248163D01*
X513373Y247874D01*
X514527Y247515D01*
X515657Y247086D01*
X516759Y246590D01*
X517830Y246028D01*
X518864Y245403D01*
X519859Y244716D01*
X520810Y243971D01*
X521715Y243169D01*
X522569Y242315D01*
X523371Y241410D01*
X524116Y240459D01*
X524803Y239464D01*
X525428Y238430D01*
X525990Y237359D01*
X526486Y236257D01*
X526915Y235127D01*
X527274Y233973D01*
X527563Y232800D01*
X527781Y231611D01*
X527927Y230411D01*
X528000Y229204D01*
X528000Y227996D01*
X718500Y227996D02*
X718427Y226789D01*
X718281Y225589D01*
X718063Y224400D01*
X717774Y223227D01*
X717415Y222073D01*
X716986Y220943D01*
X716490Y219841D01*
X715928Y218770D01*
X715303Y217736D01*
X714616Y216741D01*
X713871Y215790D01*
X713069Y214885D01*
X712215Y214031D01*
X711310Y213229D01*
X710359Y212484D01*
X709364Y211797D01*
X708330Y211172D01*
X707259Y210610D01*
X706157Y210114D01*
X705027Y209685D01*
X703873Y209326D01*
X702700Y209037D01*
X701511Y208819D01*
X700311Y208673D01*
X699104Y208600D01*
X697896Y208600D01*
X696689Y208673D01*
X695489Y208819D01*
X694300Y209037D01*
X693127Y209326D01*
X691973Y209685D01*
X690843Y210114D01*
X689741Y210610D01*
X688670Y211172D01*
X687636Y211797D01*
X686641Y212484D01*
X685690Y213229D01*
X684785Y214031D01*
X683931Y214885D01*
X683129Y215790D01*
X682384Y216741D01*
X681697Y217736D01*
X681072Y218770D01*
X680510Y219841D01*
X680014Y220943D01*
X679585Y222073D01*
X679226Y223227D01*
X678937Y224400D01*
X678719Y225589D01*
X678573Y226789D01*
X678500Y227996D01*
X678500Y229204D01*
X678573Y230411D01*
X678719Y231611D01*
X678937Y232800D01*
X679226Y233973D01*
X679585Y235127D01*
X680014Y236257D01*
X680510Y237359D01*
X681072Y238430D01*
X681697Y239464D01*
X682384Y240459D01*
X683129Y241410D01*
X683931Y242315D01*
X684785Y243169D01*
X685690Y243971D01*
X686641Y244716D01*
X687636Y245403D01*
X688670Y246028D01*
X689741Y246590D01*
X690843Y247086D01*
X691973Y247515D01*
X693127Y247874D01*
X694300Y248163D01*
X695489Y248381D01*
X696689Y248527D01*
X697896Y248600D01*
X699104Y248600D01*
X700311Y248527D01*
X701511Y248381D01*
X702700Y248163D01*
X703873Y247874D01*
X705027Y247515D01*
X706157Y247086D01*
X707259Y246590D01*
X708330Y246028D01*
X709364Y245403D01*
X710359Y244716D01*
X711310Y243971D01*
X712215Y243169D01*
X713069Y242315D01*
X713871Y241410D01*
X714616Y240459D01*
X715303Y239464D01*
X715928Y238430D01*
X716490Y237359D01*
X716986Y236257D01*
X717415Y235127D01*
X717774Y233973D01*
X718063Y232800D01*
X718281Y231611D01*
X718427Y230411D01*
X718500Y229204D01*
X718500Y227996D01*
X528000Y799496D02*
X527927Y798289D01*
X527781Y797089D01*
X527563Y795900D01*
X527274Y794727D01*
X526915Y793573D01*
X526486Y792443D01*
X525990Y791341D01*
X525428Y790270D01*
X524803Y789236D01*
X524116Y788241D01*
X523371Y787290D01*
X522569Y786385D01*
X521715Y785531D01*
X520810Y784729D01*
X519859Y783984D01*
X518864Y783297D01*
X517830Y782672D01*
X516759Y782110D01*
X515657Y781614D01*
X514527Y781185D01*
X513373Y780826D01*
X512200Y780537D01*
X511011Y780319D01*
X509811Y780173D01*
X508604Y780100D01*
X507396Y780100D01*
X506189Y780173D01*
X504989Y780319D01*
X503800Y780537D01*
X502627Y780826D01*
X501473Y781185D01*
X500343Y781614D01*
X499241Y782110D01*
X498170Y782672D01*
X497136Y783297D01*
X496141Y783984D01*
X495190Y784729D01*
X494285Y785531D01*
X493431Y786385D01*
X492629Y787290D01*
X491884Y788241D01*
X491197Y789236D01*
X490572Y790270D01*
X490010Y791341D01*
X489514Y792443D01*
X489085Y793573D01*
X488726Y794727D01*
X488437Y795900D01*
X488219Y797089D01*
X488073Y798289D01*
X488000Y799496D01*
X488000Y800704D01*
X488073Y801911D01*
X488219Y803111D01*
X488437Y804300D01*
X488726Y805473D01*
X489085Y806627D01*
X489514Y807757D01*
X490010Y808859D01*
X490572Y809930D01*
X491197Y810964D01*
X491884Y811959D01*
X492629Y812910D01*
X493431Y813815D01*
X494285Y814669D01*
X495190Y815471D01*
X496141Y816216D01*
X497136Y816903D01*
X498170Y817528D01*
X499241Y818090D01*
X500343Y818586D01*
X501473Y819015D01*
X502627Y819374D01*
X503800Y819663D01*
X504989Y819881D01*
X506189Y820027D01*
X507396Y820100D01*
X508604Y820100D01*
X509811Y820027D01*
X511011Y819881D01*
X512200Y819663D01*
X513373Y819374D01*
X514527Y819015D01*
X515657Y818586D01*
X516759Y818090D01*
X517830Y817528D01*
X518864Y816903D01*
X519859Y816216D01*
X520810Y815471D01*
X521715Y814669D01*
X522569Y813815D01*
X523371Y812910D01*
X524116Y811959D01*
X524803Y810964D01*
X525428Y809930D01*
X525990Y808859D01*
X526486Y807757D01*
X526915Y806627D01*
X527274Y805473D01*
X527563Y804300D01*
X527781Y803111D01*
X527927Y801911D01*
X528000Y800704D01*
X528000Y799496D01*
X718500Y799496D02*
X718427Y798289D01*
X718281Y797089D01*
X718063Y795900D01*
X717774Y794727D01*
X717415Y793573D01*
X716986Y792443D01*
X716490Y791341D01*
X715928Y790270D01*
X715303Y789236D01*
X714616Y788241D01*
X713871Y787290D01*
X713069Y786385D01*
X712215Y785531D01*
X711310Y784729D01*
X710359Y783984D01*
X709364Y783297D01*
X708330Y782672D01*
X707259Y782110D01*
X706157Y781614D01*
X705027Y781185D01*
X703873Y780826D01*
X702700Y780537D01*
X701511Y780319D01*
X700311Y780173D01*
X699104Y780100D01*
X697896Y780100D01*
X696689Y780173D01*
X695489Y780319D01*
X694300Y780537D01*
X693127Y780826D01*
X691973Y781185D01*
X690843Y781614D01*
X689741Y782110D01*
X688670Y782672D01*
X687636Y783297D01*
X686641Y783984D01*
X685690Y784729D01*
X684785Y785531D01*
X683931Y786385D01*
X683129Y787290D01*
X682384Y788241D01*
X681697Y789236D01*
X681072Y790270D01*
X680510Y791341D01*
X680014Y792443D01*
X679585Y793573D01*
X679226Y794727D01*
X678937Y795900D01*
X678719Y797089D01*
X678573Y798289D01*
X678500Y799496D01*
X678500Y800704D01*
X678573Y801911D01*
X678719Y803111D01*
X678937Y804300D01*
X679226Y805473D01*
X679585Y806627D01*
X680014Y807757D01*
X680510Y808859D01*
X681072Y809930D01*
X681697Y810964D01*
X682384Y811959D01*
X683129Y812910D01*
X683931Y813815D01*
X684785Y814669D01*
X685690Y815471D01*
X686641Y816216D01*
X687636Y816903D01*
X688670Y817528D01*
X689741Y818090D01*
X690843Y818586D01*
X691973Y819015D01*
X693127Y819374D01*
X694300Y819663D01*
X695489Y819881D01*
X696689Y820027D01*
X697896Y820100D01*
X699104Y820100D01*
X700311Y820027D01*
X701511Y819881D01*
X702700Y819663D01*
X703873Y819374D01*
X705027Y819015D01*
X706157Y818586D01*
X707259Y818090D01*
X708330Y817528D01*
X709364Y816903D01*
X710359Y816216D01*
X711310Y815471D01*
X712215Y814669D01*
X713069Y813815D01*
X713871Y812910D01*
X714616Y811959D01*
X715303Y810964D01*
X715928Y809930D01*
X716490Y808859D01*
X716986Y807757D01*
X717415Y806627D01*
X717774Y805473D01*
X718063Y804300D01*
X718281Y803111D01*
X718427Y801911D01*
X718500Y800704D01*
X718500Y799496D01*
X337500Y608996D02*
X337427Y607789D01*
X337281Y606589D01*
X337063Y605400D01*
X336774Y604227D01*
X336415Y603073D01*
X335986Y601943D01*
X335490Y600841D01*
X334928Y599770D01*
X334303Y598736D01*
X333616Y597741D01*
X332871Y596790D01*
X332069Y595885D01*
X331215Y595031D01*
X330310Y594229D01*
X329359Y593484D01*
X328364Y592797D01*
X327330Y592172D01*
X326259Y591610D01*
X325157Y591114D01*
X324027Y590685D01*
X322873Y590326D01*
X321700Y590037D01*
X320511Y589819D01*
X319311Y589673D01*
X318104Y589600D01*
X316896Y589600D01*
X315689Y589673D01*
X314489Y589819D01*
X313300Y590037D01*
X312127Y590326D01*
X310973Y590685D01*
X309843Y591114D01*
X308741Y591610D01*
X307670Y592172D01*
X306636Y592797D01*
X305641Y593484D01*
X304690Y594229D01*
X303785Y595031D01*
X302931Y595885D01*
X302129Y596790D01*
X301384Y597741D01*
X300697Y598736D01*
X300072Y599770D01*
X299510Y600841D01*
X299014Y601943D01*
X298585Y603073D01*
X298226Y604227D01*
X297937Y605400D01*
X297719Y606589D01*
X297573Y607789D01*
X297500Y608996D01*
X297500Y610204D01*
X297573Y611411D01*
X297719Y612611D01*
X297937Y613800D01*
X298226Y614973D01*
X298585Y616127D01*
X299014Y617257D01*
X299510Y618359D01*
X300072Y619430D01*
X300697Y620464D01*
X301384Y621459D01*
X302129Y622410D01*
X302931Y623315D01*
X303785Y624169D01*
X304690Y624971D01*
X305641Y625716D01*
X306636Y626403D01*
X307670Y627028D01*
X308741Y627590D01*
X309843Y628086D01*
X310973Y628515D01*
X312127Y628874D01*
X313300Y629163D01*
X314489Y629381D01*
X315689Y629527D01*
X316896Y629600D01*
X318104Y629600D01*
X319311Y629527D01*
X320511Y629381D01*
X321700Y629163D01*
X322873Y628874D01*
X324027Y628515D01*
X325157Y628086D01*
X326259Y627590D01*
X327330Y627028D01*
X328364Y626403D01*
X329359Y625716D01*
X330310Y624971D01*
X331215Y624169D01*
X332069Y623315D01*
X332871Y622410D01*
X333616Y621459D01*
X334303Y620464D01*
X334928Y619430D01*
X335490Y618359D01*
X335986Y617257D01*
X336415Y616127D01*
X336774Y614973D01*
X337063Y613800D01*
X337281Y612611D01*
X337427Y611411D01*
X337500Y610204D01*
X337500Y608996D01*
X528000Y608996D02*
X527927Y607789D01*
X527781Y606589D01*
X527563Y605400D01*
X527274Y604227D01*
X526915Y603073D01*
X526486Y601943D01*
X525990Y600841D01*
X525428Y599770D01*
X524803Y598736D01*
X524116Y597741D01*
X523371Y596790D01*
X522569Y595885D01*
X521715Y595031D01*
X520810Y594229D01*
X519859Y593484D01*
X518864Y592797D01*
X517830Y592172D01*
X516759Y591610D01*
X515657Y591114D01*
X514527Y590685D01*
X513373Y590326D01*
X512200Y590037D01*
X511011Y589819D01*
X509811Y589673D01*
X508604Y589600D01*
X507396Y589600D01*
X506189Y589673D01*
X504989Y589819D01*
X503800Y590037D01*
X502627Y590326D01*
X501473Y590685D01*
X500343Y591114D01*
X499241Y591610D01*
X498170Y592172D01*
X497136Y592797D01*
X496141Y593484D01*
X495190Y594229D01*
X494285Y595031D01*
X493431Y595885D01*
X492629Y596790D01*
X491884Y597741D01*
X491197Y598736D01*
X490572Y599770D01*
X490010Y600841D01*
X489514Y601943D01*
X489085Y603073D01*
X488726Y604227D01*
X488437Y605400D01*
X488219Y606589D01*
X488073Y607789D01*
X488000Y608996D01*
X488000Y610204D01*
X488073Y611411D01*
X488219Y612611D01*
X488437Y613800D01*
X488726Y614973D01*
X489085Y616127D01*
X489514Y617257D01*
X490010Y618359D01*
X490572Y619430D01*
X491197Y620464D01*
X491884Y621459D01*
X492629Y622410D01*
X493431Y623315D01*
X494285Y624169D01*
X495190Y624971D01*
X496141Y625716D01*
X497136Y626403D01*
X498170Y627028D01*
X499241Y627590D01*
X500343Y628086D01*
X501473Y628515D01*
X502627Y628874D01*
X503800Y629163D01*
X504989Y629381D01*
X506189Y629527D01*
X507396Y629600D01*
X508604Y629600D01*
X509811Y629527D01*
X511011Y629381D01*
X512200Y629163D01*
X513373Y628874D01*
X514527Y628515D01*
X515657Y628086D01*
X516759Y627590D01*
X517830Y627028D01*
X518864Y626403D01*
X519859Y625716D01*
X520810Y624971D01*
X521715Y624169D01*
X522569Y623315D01*
X523371Y622410D01*
X524116Y621459D01*
X524803Y620464D01*
X525428Y619430D01*
X525990Y618359D01*
X526486Y617257D01*
X526915Y616127D01*
X527274Y614973D01*
X527563Y613800D01*
X527781Y612611D01*
X527927Y611411D01*
X528000Y610204D01*
X528000Y608996D01*
X250190Y1321249D02*
X250260Y1322145D01*
X250401Y1323032D01*
X250611Y1323905D01*
X250888Y1324759D01*
X251232Y1325589D01*
X251640Y1326389D01*
X252109Y1327155D01*
X252637Y1327882D01*
X253220Y1328565D01*
X253855Y1329200D01*
X254538Y1329783D01*
X255265Y1330311D01*
X256031Y1330780D01*
X256831Y1331188D01*
X257661Y1331532D01*
X258515Y1331809D01*
X259388Y1332019D01*
X260276Y1332160D01*
X261171Y1332230D01*
X262069Y1332230D01*
X262965Y1332160D01*
X263852Y1332019D01*
X264725Y1331809D01*
X265579Y1331532D01*
X266409Y1331188D01*
X267209Y1330780D01*
X267975Y1330311D01*
X268702Y1329783D01*
X269385Y1329200D01*
X270020Y1328565D01*
X270603Y1327882D01*
X271131Y1327155D01*
X271600Y1326389D01*
X272008Y1325589D01*
X272352Y1324759D01*
X272629Y1323905D01*
X272839Y1323032D01*
X272980Y1322145D01*
X273050Y1321249D01*
X273050Y1320351D01*
X272980Y1319456D01*
X272839Y1318568D01*
X272629Y1317695D01*
X272352Y1316841D01*
X272008Y1316011D01*
X271600Y1315211D01*
X271131Y1314445D01*
X270603Y1313718D01*
X270020Y1313035D01*
X269385Y1312400D01*
X268702Y1311817D01*
X267975Y1311289D01*
X267209Y1310820D01*
X266409Y1310412D01*
X265579Y1310068D01*
X264725Y1309791D01*
X263852Y1309581D01*
X262965Y1309440D01*
X262069Y1309370D01*
X261171Y1309370D01*
X260276Y1309440D01*
X259388Y1309581D01*
X258515Y1309791D01*
X257661Y1310068D01*
X256831Y1310412D01*
X256031Y1310820D01*
X255265Y1311289D01*
X254538Y1311817D01*
X253855Y1312400D01*
X253220Y1313035D01*
X252637Y1313718D01*
X252109Y1314445D01*
X251640Y1315211D01*
X251232Y1316011D01*
X250888Y1316841D01*
X250611Y1317695D01*
X250401Y1318568D01*
X250260Y1319456D01*
X250190Y1320351D01*
X250190Y1321249D01*
X459740Y940249D02*
X459810Y941145D01*
X459951Y942032D01*
X460161Y942905D01*
X460438Y943759D01*
X460782Y944589D01*
X461190Y945389D01*
X461659Y946155D01*
X462187Y946882D01*
X462770Y947565D01*
X463405Y948200D01*
X464088Y948783D01*
X464815Y949311D01*
X465581Y949780D01*
X466381Y950188D01*
X467211Y950532D01*
X468065Y950809D01*
X468938Y951019D01*
X469826Y951160D01*
X470721Y951230D01*
X471619Y951230D01*
X472515Y951160D01*
X473402Y951019D01*
X474275Y950809D01*
X475129Y950532D01*
X475959Y950188D01*
X476759Y949780D01*
X477525Y949311D01*
X478252Y948783D01*
X478935Y948200D01*
X479570Y947565D01*
X480153Y946882D01*
X480681Y946155D01*
X481150Y945389D01*
X481558Y944589D01*
X481902Y943759D01*
X482179Y942905D01*
X482389Y942032D01*
X482530Y941145D01*
X482600Y940249D01*
X482600Y939351D01*
X482530Y938456D01*
X482389Y937568D01*
X482179Y936695D01*
X481902Y935841D01*
X481558Y935011D01*
X481150Y934211D01*
X480681Y933445D01*
X480153Y932718D01*
X479570Y932035D01*
X478935Y931400D01*
X478252Y930817D01*
X477525Y930289D01*
X476759Y929820D01*
X475959Y929412D01*
X475129Y929068D01*
X474275Y928791D01*
X473402Y928581D01*
X472515Y928440D01*
X471619Y928370D01*
X470721Y928370D01*
X469826Y928440D01*
X468938Y928581D01*
X468065Y928791D01*
X467211Y929068D01*
X466381Y929412D01*
X465581Y929820D01*
X464815Y930289D01*
X464088Y930817D01*
X463405Y931400D01*
X462770Y932035D01*
X462187Y932718D01*
X461659Y933445D01*
X461190Y934211D01*
X460782Y935011D01*
X460438Y935841D01*
X460161Y936695D01*
X459951Y937568D01*
X459810Y938456D01*
X459740Y939351D01*
X459740Y940249D01*
X1281403Y1000290D02*
X1282546Y1000215D01*
X1283682Y1000066D01*
X1284806Y999842D01*
X1285913Y999545D01*
X1286998Y999177D01*
X1288056Y998739D01*
X1289084Y998232D01*
X1290076Y997659D01*
X1291029Y997022D01*
X1291938Y996325D01*
X1292799Y995569D01*
X1293609Y994759D01*
X1294365Y993898D01*
X1295062Y992989D01*
X1295699Y992036D01*
X1296272Y991044D01*
X1296779Y990016D01*
X1297217Y988958D01*
X1297585Y987873D01*
X1297882Y986766D01*
X1298106Y985642D01*
X1298255Y984506D01*
X1298330Y983363D01*
X1298330Y982217D01*
X1298255Y981074D01*
X1298106Y979938D01*
X1297882Y978814D01*
X1297585Y977707D01*
X1297217Y976622D01*
X1296779Y975564D01*
X1296272Y974536D01*
X1295699Y973544D01*
X1295062Y972591D01*
X1294365Y971682D01*
X1293609Y970821D01*
X1292799Y970011D01*
X1291938Y969255D01*
X1291029Y968558D01*
X1290076Y967921D01*
X1289084Y967348D01*
X1288056Y966841D01*
X1286998Y966403D01*
X1285913Y966035D01*
X1284806Y965738D01*
X1283682Y965515D01*
X1282546Y965365D01*
X1281403Y965290D01*
X1280257Y965290D01*
X1279114Y965365D01*
X1277978Y965515D01*
X1276854Y965738D01*
X1275747Y966035D01*
X1274662Y966403D01*
X1273604Y966841D01*
X1272576Y967348D01*
X1271584Y967921D01*
X1270631Y968558D01*
X1269722Y969255D01*
X1268861Y970011D01*
X1268051Y970821D01*
X1267295Y971682D01*
X1266598Y972591D01*
X1265961Y973544D01*
X1265388Y974536D01*
X1264881Y975564D01*
X1264443Y976622D01*
X1264075Y977707D01*
X1263778Y978814D01*
X1263555Y979938D01*
X1263405Y981074D01*
X1263330Y982217D01*
X1263330Y983363D01*
X1263405Y984506D01*
X1263555Y985642D01*
X1263778Y986766D01*
X1264075Y987873D01*
X1264443Y988958D01*
X1264881Y990016D01*
X1265388Y991044D01*
X1265961Y992036D01*
X1266598Y992989D01*
X1267295Y993898D01*
X1268051Y994759D01*
X1268861Y995569D01*
X1269722Y996325D01*
X1270631Y997022D01*
X1271584Y997659D01*
X1272576Y998232D01*
X1273604Y998739D01*
X1274662Y999177D01*
X1275747Y999545D01*
X1276854Y999842D01*
X1277978Y1000066D01*
X1279114Y1000215D01*
X1280257Y1000290D01*
X1281403Y1000290D01*
X1120863Y1005370D02*
X1122006Y1005295D01*
X1123142Y1005146D01*
X1124266Y1004922D01*
X1125373Y1004625D01*
X1126458Y1004257D01*
X1127516Y1003819D01*
X1128544Y1003312D01*
X1129536Y1002739D01*
X1130489Y1002102D01*
X1131398Y1001405D01*
X1132259Y1000649D01*
X1133069Y999839D01*
X1133825Y998978D01*
X1134522Y998069D01*
X1135159Y997116D01*
X1135732Y996124D01*
X1136239Y995096D01*
X1136677Y994038D01*
X1137045Y992953D01*
X1137342Y991846D01*
X1137566Y990722D01*
X1137715Y989586D01*
X1137790Y988443D01*
X1137790Y987297D01*
X1137715Y986154D01*
X1137566Y985018D01*
X1137342Y983894D01*
X1137045Y982787D01*
X1136677Y981702D01*
X1136239Y980644D01*
X1135732Y979616D01*
X1135159Y978624D01*
X1134522Y977671D01*
X1133825Y976762D01*
X1133069Y975901D01*
X1132259Y975091D01*
X1131398Y974335D01*
X1130489Y973638D01*
X1129536Y973001D01*
X1128544Y972428D01*
X1127516Y971921D01*
X1126458Y971483D01*
X1125373Y971115D01*
X1124266Y970818D01*
X1123142Y970595D01*
X1122006Y970445D01*
X1120863Y970370D01*
X1119717Y970370D01*
X1118574Y970445D01*
X1117438Y970595D01*
X1116314Y970818D01*
X1115207Y971115D01*
X1114122Y971483D01*
X1113064Y971921D01*
X1112036Y972428D01*
X1111044Y973001D01*
X1110091Y973638D01*
X1109182Y974335D01*
X1108321Y975091D01*
X1107511Y975901D01*
X1106755Y976762D01*
X1106058Y977671D01*
X1105421Y978624D01*
X1104848Y979616D01*
X1104341Y980644D01*
X1103903Y981702D01*
X1103535Y982787D01*
X1103238Y983894D01*
X1103015Y985018D01*
X1102865Y986154D01*
X1102790Y987297D01*
X1102790Y988443D01*
X1102865Y989586D01*
X1103015Y990722D01*
X1103238Y991846D01*
X1103535Y992953D01*
X1103903Y994038D01*
X1104341Y995096D01*
X1104848Y996124D01*
X1105421Y997116D01*
X1106058Y998069D01*
X1106755Y998978D01*
X1107511Y999839D01*
X1108321Y1000649D01*
X1109182Y1001405D01*
X1110091Y1002102D01*
X1111044Y1002739D01*
X1112036Y1003312D01*
X1113064Y1003819D01*
X1114122Y1004257D01*
X1115207Y1004625D01*
X1116314Y1004922D01*
X1117438Y1005146D01*
X1118574Y1005295D01*
X1119717Y1005370D01*
X1120863Y1005370D01*
X1281403Y1160830D02*
X1282546Y1160755D01*
X1283682Y1160606D01*
X1284806Y1160382D01*
X1285913Y1160085D01*
X1286998Y1159717D01*
X1288056Y1159279D01*
X1289084Y1158772D01*
X1290076Y1158199D01*
X1291029Y1157562D01*
X1291938Y1156865D01*
X1292799Y1156109D01*
X1293609Y1155299D01*
X1294365Y1154438D01*
X1295062Y1153529D01*
X1295699Y1152576D01*
X1296272Y1151584D01*
X1296779Y1150556D01*
X1297217Y1149498D01*
X1297585Y1148413D01*
X1297882Y1147306D01*
X1298106Y1146182D01*
X1298255Y1145046D01*
X1298330Y1143903D01*
X1298330Y1142757D01*
X1298255Y1141614D01*
X1298106Y1140478D01*
X1297882Y1139354D01*
X1297585Y1138247D01*
X1297217Y1137162D01*
X1296779Y1136104D01*
X1296272Y1135076D01*
X1295699Y1134084D01*
X1295062Y1133131D01*
X1294365Y1132222D01*
X1293609Y1131361D01*
X1292799Y1130551D01*
X1291938Y1129795D01*
X1291029Y1129098D01*
X1290076Y1128461D01*
X1289084Y1127888D01*
X1288056Y1127381D01*
X1286998Y1126943D01*
X1285913Y1126575D01*
X1284806Y1126278D01*
X1283682Y1126055D01*
X1282546Y1125905D01*
X1281403Y1125830D01*
X1280257Y1125830D01*
X1279114Y1125905D01*
X1277978Y1126055D01*
X1276854Y1126278D01*
X1275747Y1126575D01*
X1274662Y1126943D01*
X1273604Y1127381D01*
X1272576Y1127888D01*
X1271584Y1128461D01*
X1270631Y1129098D01*
X1269722Y1129795D01*
X1268861Y1130551D01*
X1268051Y1131361D01*
X1267295Y1132222D01*
X1266598Y1133131D01*
X1265961Y1134084D01*
X1265388Y1135076D01*
X1264881Y1136104D01*
X1264443Y1137162D01*
X1264075Y1138247D01*
X1263778Y1139354D01*
X1263555Y1140478D01*
X1263405Y1141614D01*
X1263330Y1142757D01*
X1263330Y1143903D01*
X1263405Y1145046D01*
X1263555Y1146182D01*
X1263778Y1147306D01*
X1264075Y1148413D01*
X1264443Y1149498D01*
X1264881Y1150556D01*
X1265388Y1151584D01*
X1265961Y1152576D01*
X1266598Y1153529D01*
X1267295Y1154438D01*
X1268051Y1155299D01*
X1268861Y1156109D01*
X1269722Y1156865D01*
X1270631Y1157562D01*
X1271584Y1158199D01*
X1272576Y1158772D01*
X1273604Y1159279D01*
X1274662Y1159717D01*
X1275747Y1160085D01*
X1276854Y1160382D01*
X1277978Y1160606D01*
X1279114Y1160755D01*
X1280257Y1160830D01*
X1281403Y1160830D01*
X1120894Y1165870D02*
X1122101Y1165797D01*
X1123301Y1165651D01*
X1124490Y1165433D01*
X1125663Y1165144D01*
X1126817Y1164785D01*
X1127947Y1164356D01*
X1129049Y1163860D01*
X1130120Y1163298D01*
X1131154Y1162673D01*
X1132149Y1161986D01*
X1133100Y1161241D01*
X1134005Y1160439D01*
X1134859Y1159585D01*
X1135661Y1158680D01*
X1136406Y1157729D01*
X1137093Y1156734D01*
X1137718Y1155700D01*
X1138280Y1154629D01*
X1138776Y1153527D01*
X1139205Y1152397D01*
X1139564Y1151243D01*
X1139853Y1150070D01*
X1140071Y1148881D01*
X1140217Y1147681D01*
X1140290Y1146474D01*
X1140290Y1145266D01*
X1140217Y1144059D01*
X1140071Y1142859D01*
X1139853Y1141670D01*
X1139564Y1140497D01*
X1139205Y1139343D01*
X1138776Y1138213D01*
X1138280Y1137111D01*
X1137718Y1136040D01*
X1137093Y1135006D01*
X1136406Y1134011D01*
X1135661Y1133060D01*
X1134859Y1132155D01*
X1134005Y1131301D01*
X1133100Y1130499D01*
X1132149Y1129754D01*
X1131154Y1129067D01*
X1130120Y1128442D01*
X1129049Y1127880D01*
X1127947Y1127384D01*
X1126817Y1126955D01*
X1125663Y1126596D01*
X1124490Y1126307D01*
X1123301Y1126089D01*
X1122101Y1125943D01*
X1120894Y1125870D01*
X1119686Y1125870D01*
X1118479Y1125943D01*
X1117279Y1126089D01*
X1116090Y1126307D01*
X1114917Y1126596D01*
X1113763Y1126955D01*
X1112633Y1127384D01*
X1111531Y1127880D01*
X1110460Y1128442D01*
X1109426Y1129067D01*
X1108431Y1129754D01*
X1107480Y1130499D01*
X1106575Y1131301D01*
X1105721Y1132155D01*
X1104919Y1133060D01*
X1104174Y1134011D01*
X1103487Y1135006D01*
X1102862Y1136040D01*
X1102300Y1137111D01*
X1101804Y1138213D01*
X1101375Y1139343D01*
X1101016Y1140497D01*
X1100727Y1141670D01*
X1100509Y1142859D01*
X1100363Y1144059D01*
X1100290Y1145266D01*
X1100290Y1146474D01*
X1100363Y1147681D01*
X1100509Y1148881D01*
X1100727Y1150070D01*
X1101016Y1151243D01*
X1101375Y1152397D01*
X1101804Y1153527D01*
X1102300Y1154629D01*
X1102862Y1155700D01*
X1103487Y1156734D01*
X1104174Y1157729D01*
X1104919Y1158680D01*
X1105721Y1159585D01*
X1106575Y1160439D01*
X1107480Y1161241D01*
X1108431Y1161986D01*
X1109426Y1162673D01*
X1110460Y1163298D01*
X1111531Y1163860D01*
X1112633Y1164356D01*
X1113763Y1164785D01*
X1114917Y1165144D01*
X1116090Y1165433D01*
X1117279Y1165651D01*
X1118479Y1165797D01*
X1119686Y1165870D01*
X1120894Y1165870D01*
M02*
