  0
SECTION
  2
HEADER
  9
$ACADVER
  1
AC1009
  9
$FILLMODE
 70
1
  9
$EXTMIN
 10
-48.8548
 20
-70.5950
 30
0.0000
  9
$EXTMAX
 10
306.8150
 20
149.9150
 30
0.0000
  0
ENDSEC
  0
SECTION
  2
TABLES
  0
TABLE
  2
LTYPE
 70
1
  0
LTYPE
  2
CONTINUOUS
 70
64
  3
Solid line
 72
65
 73
0
 40
0
  0
ENDTAB
  0
TABLE
  2
LAYER
 70
255
  0
LAYER
  2
17
 70
64
 62
110
  6
CONTINUOUS
  0
LAYER
  2
18
 70
64
 62
110
  6
CONTINUOUS
  0
ENDTAB
  0
ENDSEC
  0
SECTION
  2
BLOCKS
  0
BLOCK
  8
0
  2
RECT
 70
64
 10
0.0000
 20
0.0000
 30
0.0000
  3
RECT
  0
SOLID
  8
0
 10
-0.5000
 20
-0.5000
 30
0.0000
 11
0.5000
 21
-0.5000
 31
0.0000
 12
-0.5000
 22
0.5000
 32
0.0000
 13
0.5000
 23
0.5000
 33
0.0000
  0
ENDBLK
  8
0
  0
BLOCK
  8
0
  2
PIE
 70
64
 10
0.0000
 20
0.0000
 30
0.0000
  3
PIE
  0
POLYLINE
  8
0
 66
1
 10
0.0000
 20
0.0000
 30
0.0000
 40
0.5000
 41
0.5000
 70
0
  0
VERTEX
  8
0
 10
0.0000
 20
-0.2500
 30
0.0000
 42
1.0000
  0
VERTEX
  8
0
 10
0.0000
 20
0.2500
 30
0.0000
 42
1.0000
  0
VERTEX
  8
0
 10
0.0000
 20
-0.2500
 30
0.0000
  0
SEQEND
  8
0
  0
ENDBLK
  8
0
  0
BLOCK
  8
0
  2
OCTAGONP
 70
64
 10
0.0000
 20
0.0000
 30
0.0000
  3
OCTAGONP
  0
POLYLINE
  8
0
 66
1
 10
0.0000
 20
0.0000
 30
0.0000
 40
0.5000
 41
0.5000
 70
0
  0
VERTEX
  8
0
 10
-0.2500
 20
-0.1036
 30
0.0000
  0
VERTEX
  8
0
 10
-0.2500
 20
0.1036
 30
0.0000
  0
VERTEX
  8
0
 10
-0.1036
 20
0.2500
 30
0.0000
  0
VERTEX
  8
0
 10
0.1036
 20
0.2500
 30
0.0000
  0
VERTEX
  8
0
 10
0.2500
 20
0.1036
 30
0.0000
  0
VERTEX
  8
0
 10
0.2500
 20
-0.1036
 30
0.0000
  0
VERTEX
  8
0
 10
0.1036
 20
-0.2500
 30
0.0000
  0
VERTEX
  8
0
 10
-0.1036
 20
-0.2500
 30
0.0000
  0
VERTEX
  8
0
 10
-0.2500
 20
-0.1036
 30
0.0000
  0
VERTEX
  8
0
 10
-0.2500
 20
0.1036
 30
0.0000
  0
SEQEND
  8
0
  0
ENDBLK
  8
0
  0
BLOCK
  8
0
  2
SQUAREP
 70
64
 10
0.0000
 20
0.0000
 30
0.0000
  3
SQUAREP
  0
SOLID
  8
0
 10
-0.5000
 20
-0.5000
 30
0.0000
 11
0.5000
 21
-0.5000
 31
0.0000
 12
-0.5000
 22
0.5000
 32
0.0000
 13
0.5000
 23
0.5000
 33
0.0000
  0
ENDBLK
  8
0
  0
BLOCK
  8
0
  2
ROUNDP
 70
64
 10
0.0000
 20
0.0000
 30
0.0000
  3
ROUNDP
  0
POLYLINE
  8
0
 66
1
 10
0.0000
 20
0.0000
 30
0.0000
 40
0.5000
 41
0.5000
 70
0
  0
VERTEX
  8
0
 10
0.0000
 20
-0.2500
 30
0.0000
 42
1.0000
  0
VERTEX
  8
0
 10
0.0000
 20
0.2500
 30
0.0000
 42
1.0000
  0
VERTEX
  8
0
 10
0.0000
 20
-0.2500
 30
0.0000
  0
SEQEND
  8
0
  0
ENDBLK
  8
0
  0
BLOCK
  8
0
  2
ANNULUSP
 70
64
 10
0.0000
 20
0.0000
 30
0.0000
  3
ANNULUSP
  0
POLYLINE
  8
0
 66
1
 10
0.0000
 20
0.0000
 30
0.0000
 40
0.5000
 41
0.5000
 70
0
  0
VERTEX
  8
0
 10
0.0000
 20
-0.2500
 30
0.0000
 42
1.0000
  0
VERTEX
  8
0
 10
0.0000
 20
0.2500
 30
0.0000
 42
1.0000
  0
VERTEX
  8
0
 10
0.0000
 20
-0.2500
 30
0.0000
  0
SEQEND
  8
0
  0
ENDBLK
  8
0
  0
BLOCK
  8
0
  2
THERMALP
 70
64
 10
0.0000
 20
0.0000
 30
0.0000
  3
THERMALP
  0
POLYLINE
  8
0
 66
1
 10
0.0000
 20
0.0000
 30
0.0000
 40
0.1000
 41
0.1000
 70
0
  0
VERTEX
  8
0
 10
-0.2379
 20
0.4500
 30
0.0000
  0
VERTEX
  8
0
 10
0.2379
 20
0.4500
 30
0.0000
  0
SEQEND
  8
0
  0
POLYLINE
  8
0
 66
1
 10
0.0000
 20
0.0000
 30
0.0000
 40
0.0500
 41
0.0500
 70
0
  0
VERTEX
  8
0
 10
0.2379
 20
0.4250
 30
0.0000
 42
1.0000
  0
VERTEX
  8
0
 10
0.2379
 20
0.4750
 30
0.0000
  0
SEQEND
  8
0
  0
POLYLINE
  8
0
 66
1
 10
0.0000
 20
0.0000
 30
0.0000
 40
0.0500
 41
0.0500
 70
0
  0
VERTEX
  8
0
 10
-0.2379
 20
0.4750
 30
0.0000
 42
1.0000
  0
VERTEX
  8
0
 10
-0.2379
 20
0.4250
 30
0.0000
  0
SEQEND
  8
0
  0
POLYLINE
  8
0
 66
1
 10
0.0000
 20
0.0000
 30
0.0000
 40
0.1000
 41
0.1000
 70
0
  0
VERTEX
  8
0
 10
0.4500
 20
0.2379
 30
0.0000
  0
VERTEX
  8
0
 10
0.4500
 20
-0.2379
 30
0.0000
  0
SEQEND
  8
0
  0
POLYLINE
  8
0
 66
1
 10
0.0000
 20
0.0000
 30
0.0000
 40
0.0500
 41
0.0500
 70
0
  0
VERTEX
  8
0
 10
0.4250
 20
-0.2379
 30
0.0000
 42
1.0000
  0
VERTEX
  8
0
 10
0.4750
 20
-0.2379
 30
0.0000
  0
SEQEND
  8
0
  0
POLYLINE
  8
0
 66
1
 10
0.0000
 20
0.0000
 30
0.0000
 40
0.0500
 41
0.0500
 70
0
  0
VERTEX
  8
0
 10
0.4750
 20
0.2379
 30
0.0000
 42
1.0000
  0
VERTEX
  8
0
 10
0.4250
 20
0.2379
 30
0.0000
  0
SEQEND
  8
0
  0
POLYLINE
  8
0
 66
1
 10
0.0000
 20
0.0000
 30
0.0000
 40
0.1000
 41
0.1000
 70
0
  0
VERTEX
  8
0
 10
0.2379
 20
-0.4500
 30
0.0000
  0
VERTEX
  8
0
 10
-0.2379
 20
-0.4500
 30
0.0000
  0
SEQEND
  8
0
  0
POLYLINE
  8
0
 66
1
 10
0.0000
 20
0.0000
 30
0.0000
 40
0.0500
 41
0.0500
 70
0
  0
VERTEX
  8
0
 10
-0.2379
 20
-0.4250
 30
0.0000
 42
1.0000
  0
VERTEX
  8
0
 10
-0.2379
 20
-0.4750
 30
0.0000
  0
SEQEND
  8
0
  0
POLYLINE
  8
0
 66
1
 10
0.0000
 20
0.0000
 30
0.0000
 40
0.0500
 41
0.0500
 70
0
  0
VERTEX
  8
0
 10
0.2379
 20
-0.4750
 30
0.0000
 42
1.0000
  0
VERTEX
  8
0
 10
0.2379
 20
-0.4250
 30
0.0000
  0
SEQEND
  8
0
  0
POLYLINE
  8
0
 66
1
 10
0.0000
 20
0.0000
 30
0.0000
 40
0.1000
 41
0.1000
 70
0
  0
VERTEX
  8
0
 10
-0.4500
 20
-0.2379
 30
0.0000
  0
VERTEX
  8
0
 10
-0.4500
 20
0.2379
 30
0.0000
  0
SEQEND
  8
0
  0
POLYLINE
  8
0
 66
1
 10
0.0000
 20
0.0000
 30
0.0000
 40
0.0500
 41
0.0500
 70
0
  0
VERTEX
  8
0
 10
-0.4250
 20
0.2379
 30
0.0000
 42
1.0000
  0
VERTEX
  8
0
 10
-0.4750
 20
0.2379
 30
0.0000
  0
SEQEND
  8
0
  0
POLYLINE
  8
0
 66
1
 10
0.0000
 20
0.0000
 30
0.0000
 40
0.0500
 41
0.0500
 70
0
  0
VERTEX
  8
0
 10
-0.4750
 20
-0.2379
 30
0.0000
 42
1.0000
  0
VERTEX
  8
0
 10
-0.4250
 20
-0.2379
 30
0.0000
  0
SEQEND
  8
0
  0
ENDBLK
  8
0
  0
BLOCK
  8
0
  2
OCTAGONV
 70
64
 10
0.0000
 20
0.0000
 30
0.0000
  3
OCTAGONV
  0
POLYLINE
  8
0
 66
1
 10
0.0000
 20
0.0000
 30
0.0000
 40
0.5000
 41
0.5000
 70
0
  0
VERTEX
  8
0
 10
-0.2500
 20
-0.1036
 30
0.0000
  0
VERTEX
  8
0
 10
-0.2500
 20
0.1036
 30
0.0000
  0
VERTEX
  8
0
 10
-0.1036
 20
0.2500
 30
0.0000
  0
VERTEX
  8
0
 10
0.1036
 20
0.2500
 30
0.0000
  0
VERTEX
  8
0
 10
0.2500
 20
0.1036
 30
0.0000
  0
VERTEX
  8
0
 10
0.2500
 20
-0.1036
 30
0.0000
  0
VERTEX
  8
0
 10
0.1036
 20
-0.2500
 30
0.0000
  0
VERTEX
  8
0
 10
-0.1036
 20
-0.2500
 30
0.0000
  0
VERTEX
  8
0
 10
-0.2500
 20
-0.1036
 30
0.0000
  0
VERTEX
  8
0
 10
-0.2500
 20
0.1036
 30
0.0000
  0
SEQEND
  8
0
  0
ENDBLK
  8
0
  0
BLOCK
  8
0
  2
SQUAREV
 70
64
 10
0.0000
 20
0.0000
 30
0.0000
  3
SQUAREV
  0
SOLID
  8
0
 10
-0.5000
 20
-0.5000
 30
0.0000
 11
0.5000
 21
-0.5000
 31
0.0000
 12
-0.5000
 22
0.5000
 32
0.0000
 13
0.5000
 23
0.5000
 33
0.0000
  0
ENDBLK
  8
0
  0
BLOCK
  8
0
  2
ROUNDV
 70
64
 10
0.0000
 20
0.0000
 30
0.0000
  3
ROUNDV
  0
POLYLINE
  8
0
 66
1
 10
0.0000
 20
0.0000
 30
0.0000
 40
0.5000
 41
0.5000
 70
0
  0
VERTEX
  8
0
 10
0.0000
 20
-0.2500
 30
0.0000
 42
1.0000
  0
VERTEX
  8
0
 10
0.0000
 20
0.2500
 30
0.0000
 42
1.0000
  0
VERTEX
  8
0
 10
0.0000
 20
-0.2500
 30
0.0000
  0
SEQEND
  8
0
  0
ENDBLK
  8
0
  0
BLOCK
  8
0
  2
ANNULUSV
 70
64
 10
0.0000
 20
0.0000
 30
0.0000
  3
ANNULUSV
  0
POLYLINE
  8
0
 66
1
 10
0.0000
 20
0.0000
 30
0.0000
 40
0.5000
 41
0.5000
 70
0
  0
VERTEX
  8
0
 10
0.0000
 20
-0.2500
 30
0.0000
 42
1.0000
  0
VERTEX
  8
0
 10
0.0000
 20
0.2500
 30
0.0000
 42
1.0000
  0
VERTEX
  8
0
 10
0.0000
 20
-0.2500
 30
0.0000
  0
SEQEND
  8
0
  0
ENDBLK
  8
0
  0
BLOCK
  8
0
  2
THERMALV
 70
64
 10
0.0000
 20
0.0000
 30
0.0000
  3
THERMALV
  0
POLYLINE
  8
0
 66
1
 10
0.0000
 20
0.0000
 30
0.0000
 40
0.1000
 41
0.1000
 70
0
  0
VERTEX
  8
0
 10
-0.2379
 20
0.4500
 30
0.0000
  0
VERTEX
  8
0
 10
0.2379
 20
0.4500
 30
0.0000
  0
SEQEND
  8
0
  0
POLYLINE
  8
0
 66
1
 10
0.0000
 20
0.0000
 30
0.0000
 40
0.0500
 41
0.0500
 70
0
  0
VERTEX
  8
0
 10
0.2379
 20
0.4250
 30
0.0000
 42
1.0000
  0
VERTEX
  8
0
 10
0.2379
 20
0.4750
 30
0.0000
  0
SEQEND
  8
0
  0
POLYLINE
  8
0
 66
1
 10
0.0000
 20
0.0000
 30
0.0000
 40
0.0500
 41
0.0500
 70
0
  0
VERTEX
  8
0
 10
-0.2379
 20
0.4750
 30
0.0000
 42
1.0000
  0
VERTEX
  8
0
 10
-0.2379
 20
0.4250
 30
0.0000
  0
SEQEND
  8
0
  0
POLYLINE
  8
0
 66
1
 10
0.0000
 20
0.0000
 30
0.0000
 40
0.1000
 41
0.1000
 70
0
  0
VERTEX
  8
0
 10
0.4500
 20
0.2379
 30
0.0000
  0
VERTEX
  8
0
 10
0.4500
 20
-0.2379
 30
0.0000
  0
SEQEND
  8
0
  0
POLYLINE
  8
0
 66
1
 10
0.0000
 20
0.0000
 30
0.0000
 40
0.0500
 41
0.0500
 70
0
  0
VERTEX
  8
0
 10
0.4250
 20
-0.2379
 30
0.0000
 42
1.0000
  0
VERTEX
  8
0
 10
0.4750
 20
-0.2379
 30
0.0000
  0
SEQEND
  8
0
  0
POLYLINE
  8
0
 66
1
 10
0.0000
 20
0.0000
 30
0.0000
 40
0.0500
 41
0.0500
 70
0
  0
VERTEX
  8
0
 10
0.4750
 20
0.2379
 30
0.0000
 42
1.0000
  0
VERTEX
  8
0
 10
0.4250
 20
0.2379
 30
0.0000
  0
SEQEND
  8
0
  0
POLYLINE
  8
0
 66
1
 10
0.0000
 20
0.0000
 30
0.0000
 40
0.1000
 41
0.1000
 70
0
  0
VERTEX
  8
0
 10
0.2379
 20
-0.4500
 30
0.0000
  0
VERTEX
  8
0
 10
-0.2379
 20
-0.4500
 30
0.0000
  0
SEQEND
  8
0
  0
POLYLINE
  8
0
 66
1
 10
0.0000
 20
0.0000
 30
0.0000
 40
0.0500
 41
0.0500
 70
0
  0
VERTEX
  8
0
 10
-0.2379
 20
-0.4250
 30
0.0000
 42
1.0000
  0
VERTEX
  8
0
 10
-0.2379
 20
-0.4750
 30
0.0000
  0
SEQEND
  8
0
  0
POLYLINE
  8
0
 66
1
 10
0.0000
 20
0.0000
 30
0.0000
 40
0.0500
 41
0.0500
 70
0
  0
VERTEX
  8
0
 10
0.2379
 20
-0.4750
 30
0.0000
 42
1.0000
  0
VERTEX
  8
0
 10
0.2379
 20
-0.4250
 30
0.0000
  0
SEQEND
  8
0
  0
POLYLINE
  8
0
 66
1
 10
0.0000
 20
0.0000
 30
0.0000
 40
0.1000
 41
0.1000
 70
0
  0
VERTEX
  8
0
 10
-0.4500
 20
-0.2379
 30
0.0000
  0
VERTEX
  8
0
 10
-0.4500
 20
0.2379
 30
0.0000
  0
SEQEND
  8
0
  0
POLYLINE
  8
0
 66
1
 10
0.0000
 20
0.0000
 30
0.0000
 40
0.0500
 41
0.0500
 70
0
  0
VERTEX
  8
0
 10
-0.4250
 20
0.2379
 30
0.0000
 42
1.0000
  0
VERTEX
  8
0
 10
-0.4750
 20
0.2379
 30
0.0000
  0
SEQEND
  8
0
  0
POLYLINE
  8
0
 66
1
 10
0.0000
 20
0.0000
 30
0.0000
 40
0.0500
 41
0.0500
 70
0
  0
VERTEX
  8
0
 10
-0.4750
 20
-0.2379
 30
0.0000
 42
1.0000
  0
VERTEX
  8
0
 10
-0.4250
 20
-0.2379
 30
0.0000
  0
SEQEND
  8
0
  0
ENDBLK
  8
0
  0
ENDSEC
  0
SECTION
  2
ENTITIES
  0
INSERT
  8
17
  2
ROUNDP
 10
121.2850
 20
64.7700
 30
0.0000
 41
1.9304
 42
1.9304
 43
1.0000
 50
90.0000
  0
INSERT
  8
17
  2
ROUNDP
 10
121.2850
 20
64.7700
 30
0.0000
 41
1.9304
 42
1.9304
 43
1.0000
 50
90.0000
  0
INSERT
  8
17
  2
ROUNDP
 10
121.2850
 20
54.6100
 30
0.0000
 41
1.9304
 42
1.9304
 43
1.0000
 50
90.0000
  0
INSERT
  8
17
  2
ROUNDP
 10
121.2850
 20
54.6100
 30
0.0000
 41
1.9304
 42
1.9304
 43
1.0000
 50
90.0000
  0
INSERT
  8
17
  2
ROUNDP
 10
77.4700
 20
55.2450
 30
0.0000
 41
1.9304
 42
1.9304
 43
1.0000
 50
180.0000
  0
INSERT
  8
17
  2
ROUNDP
 10
77.4700
 20
55.2450
 30
0.0000
 41
1.9304
 42
1.9304
 43
1.0000
 50
180.0000
  0
INSERT
  8
17
  2
ROUNDP
 10
87.6300
 20
55.2450
 30
0.0000
 41
1.9304
 42
1.9304
 43
1.0000
 50
180.0000
  0
INSERT
  8
17
  2
ROUNDP
 10
87.6300
 20
55.2450
 30
0.0000
 41
1.9304
 42
1.9304
 43
1.0000
 50
180.0000
  0
INSERT
  8
17
  2
ROUNDP
 10
130.8100
 20
20.9550
 30
0.0000
 41
1.9304
 42
1.9304
 43
1.0000
 50
0.0000
  0
INSERT
  8
17
  2
ROUNDP
 10
130.8100
 20
20.9550
 30
0.0000
 41
1.9304
 42
1.9304
 43
1.0000
 50
0.0000
  0
INSERT
  8
17
  2
ROUNDP
 10
120.6500
 20
20.9550
 30
0.0000
 41
1.9304
 42
1.9304
 43
1.0000
 50
0.0000
  0
INSERT
  8
17
  2
ROUNDP
 10
120.6500
 20
20.9550
 30
0.0000
 41
1.9304
 42
1.9304
 43
1.0000
 50
0.0000
  0
INSERT
  8
17
  2
ROUNDP
 10
86.9950
 20
11.4300
 30
0.0000
 41
1.9304
 42
1.9304
 43
1.0000
 50
270.0000
  0
INSERT
  8
17
  2
ROUNDP
 10
86.9950
 20
11.4300
 30
0.0000
 41
1.9304
 42
1.9304
 43
1.0000
 50
270.0000
  0
INSERT
  8
17
  2
ROUNDP
 10
86.9950
 20
21.5900
 30
0.0000
 41
1.9304
 42
1.9304
 43
1.0000
 50
270.0000
  0
INSERT
  8
17
  2
ROUNDP
 10
86.9950
 20
21.5900
 30
0.0000
 41
1.9304
 42
1.9304
 43
1.0000
 50
270.0000
  0
INSERT
  8
17
  2
ROUNDP
 10
94.1500
 20
64.5850
 30
0.0000
 41
1.9304
 42
1.9304
 43
1.0000
 50
90.0000
  0
INSERT
  8
17
  2
ROUNDP
 10
94.1500
 20
64.5850
 30
0.0000
 41
1.9304
 42
1.9304
 43
1.0000
 50
90.0000
  0
INSERT
  8
17
  2
ROUNDP
 10
94.1500
 20
54.4250
 30
0.0000
 41
1.9304
 42
1.9304
 43
1.0000
 50
90.0000
  0
INSERT
  8
17
  2
ROUNDP
 10
94.1500
 20
54.4250
 30
0.0000
 41
1.9304
 42
1.9304
 43
1.0000
 50
90.0000
  0
INSERT
  8
17
  2
ROUNDP
 10
77.4700
 20
27.9400
 30
0.0000
 41
1.9304
 42
1.9304
 43
1.0000
 50
180.0000
  0
INSERT
  8
17
  2
ROUNDP
 10
77.4700
 20
27.9400
 30
0.0000
 41
1.9304
 42
1.9304
 43
1.0000
 50
180.0000
  0
INSERT
  8
17
  2
ROUNDP
 10
87.6300
 20
27.9400
 30
0.0000
 41
1.9304
 42
1.9304
 43
1.0000
 50
180.0000
  0
INSERT
  8
17
  2
ROUNDP
 10
87.6300
 20
27.9400
 30
0.0000
 41
1.9304
 42
1.9304
 43
1.0000
 50
180.0000
  0
INSERT
  8
17
  2
ROUNDP
 10
130.8100
 20
48.2600
 30
0.0000
 41
1.9304
 42
1.9304
 43
1.0000
 50
0.0000
  0
INSERT
  8
17
  2
ROUNDP
 10
130.8100
 20
48.2600
 30
0.0000
 41
1.9304
 42
1.9304
 43
1.0000
 50
0.0000
  0
INSERT
  8
17
  2
ROUNDP
 10
120.6500
 20
48.2600
 30
0.0000
 41
1.9304
 42
1.9304
 43
1.0000
 50
0.0000
  0
INSERT
  8
17
  2
ROUNDP
 10
120.6500
 20
48.2600
 30
0.0000
 41
1.9304
 42
1.9304
 43
1.0000
 50
0.0000
  0
INSERT
  8
17
  2
ROUNDP
 10
114.3000
 20
11.4300
 30
0.0000
 41
1.9304
 42
1.9304
 43
1.0000
 50
270.0000
  0
INSERT
  8
17
  2
ROUNDP
 10
114.3000
 20
11.4300
 30
0.0000
 41
1.9304
 42
1.9304
 43
1.0000
 50
270.0000
  0
INSERT
  8
17
  2
ROUNDP
 10
114.3000
 20
21.5900
 30
0.0000
 41
1.9304
 42
1.9304
 43
1.0000
 50
270.0000
  0
INSERT
  8
17
  2
ROUNDP
 10
114.3000
 20
21.5900
 30
0.0000
 41
1.9304
 42
1.9304
 43
1.0000
 50
270.0000
  0
INSERT
  8
17
  2
ROUNDP
 10
101.6000
 20
47.7200
 30
0.0000
 41
1.9304
 42
1.9304
 43
1.0000
 50
90.0000
  0
INSERT
  8
17
  2
ROUNDP
 10
101.6000
 20
47.7200
 30
0.0000
 41
1.9304
 42
1.9304
 43
1.0000
 50
90.0000
  0
INSERT
  8
17
  2
ROUNDP
 10
101.6000
 20
37.5600
 30
0.0000
 41
1.9304
 42
1.9304
 43
1.0000
 50
90.0000
  0
INSERT
  8
17
  2
ROUNDP
 10
101.6000
 20
37.5600
 30
0.0000
 41
1.9304
 42
1.9304
 43
1.0000
 50
90.0000
  0
INSERT
  8
17
  2
ROUNDP
 10
94.7100
 20
35.5600
 30
0.0000
 41
1.9304
 42
1.9304
 43
1.0000
 50
180.0000
  0
INSERT
  8
17
  2
ROUNDP
 10
94.7100
 20
35.5600
 30
0.0000
 41
1.9304
 42
1.9304
 43
1.0000
 50
180.0000
  0
INSERT
  8
17
  2
ROUNDP
 10
104.8700
 20
35.5600
 30
0.0000
 41
1.9304
 42
1.9304
 43
1.0000
 50
180.0000
  0
INSERT
  8
17
  2
ROUNDP
 10
104.8700
 20
35.5600
 30
0.0000
 41
1.9304
 42
1.9304
 43
1.0000
 50
180.0000
  0
INSERT
  8
17
  2
ROUNDP
 10
113.9600
 20
40.3600
 30
0.0000
 41
1.9304
 42
1.9304
 43
1.0000
 50
0.0000
  0
INSERT
  8
17
  2
ROUNDP
 10
113.9600
 20
40.3600
 30
0.0000
 41
1.9304
 42
1.9304
 43
1.0000
 50
0.0000
  0
INSERT
  8
17
  2
ROUNDP
 10
103.8000
 20
40.3600
 30
0.0000
 41
1.9304
 42
1.9304
 43
1.0000
 50
0.0000
  0
INSERT
  8
17
  2
ROUNDP
 10
103.8000
 20
40.3600
 30
0.0000
 41
1.9304
 42
1.9304
 43
1.0000
 50
0.0000
  0
INSERT
  8
17
  2
ROUNDP
 10
106.6800
 20
28.4000
 30
0.0000
 41
1.9304
 42
1.9304
 43
1.0000
 50
270.0000
  0
INSERT
  8
17
  2
ROUNDP
 10
106.6800
 20
28.4000
 30
0.0000
 41
1.9304
 42
1.9304
 43
1.0000
 50
270.0000
  0
INSERT
  8
17
  2
ROUNDP
 10
106.6800
 20
38.5600
 30
0.0000
 41
1.9304
 42
1.9304
 43
1.0000
 50
270.0000
  0
INSERT
  8
17
  2
ROUNDP
 10
106.6800
 20
38.5600
 30
0.0000
 41
1.9304
 42
1.9304
 43
1.0000
 50
270.0000
  0
INSERT
  8
17
  2
SQUAREP
 10
106.6400
 20
64.6500
 30
0.0000
 41
1.5080
 42
1.5080
 43
1.0000
 50
180.0000
  0
INSERT
  8
17
  2
SQUAREP
 10
106.6400
 20
64.6500
 30
0.0000
 41
1.5080
 42
1.5080
 43
1.0000
 50
180.0000
  0
INSERT
  8
17
  2
SQUAREP
 10
101.6400
 20
64.6500
 30
0.0000
 41
1.5080
 42
1.5080
 43
1.0000
 50
180.0000
  0
INSERT
  8
17
  2
SQUAREP
 10
101.6400
 20
64.6500
 30
0.0000
 41
1.5080
 42
1.5080
 43
1.0000
 50
180.0000
  0
INSERT
  8
17
  2
SQUAREP
 10
104.1400
 20
64.6500
 30
0.0000
 41
1.5080
 42
1.5080
 43
1.0000
 50
180.0000
  0
INSERT
  8
17
  2
SQUAREP
 10
104.1400
 20
64.6500
 30
0.0000
 41
1.5080
 42
1.5080
 43
1.0000
 50
180.0000
  0
INSERT
  8
17
  2
SQUAREP
 10
106.6400
 20
50.1500
 30
0.0000
 41
1.5080
 42
1.5080
 43
1.0000
 50
180.0000
  0
INSERT
  8
17
  2
SQUAREP
 10
106.6400
 20
50.1500
 30
0.0000
 41
1.5080
 42
1.5080
 43
1.0000
 50
180.0000
  0
INSERT
  8
17
  2
SQUAREP
 10
101.6400
 20
50.1500
 30
0.0000
 41
1.5080
 42
1.5080
 43
1.0000
 50
180.0000
  0
INSERT
  8
17
  2
SQUAREP
 10
101.6400
 20
50.1500
 30
0.0000
 41
1.5080
 42
1.5080
 43
1.0000
 50
180.0000
  0
INSERT
  8
17
  2
SQUAREP
 10
110.2400
 20
57.1500
 30
0.0000
 41
3.2160
 42
3.2160
 43
1.0000
 50
180.0000
  0
INSERT
  8
17
  2
SQUAREP
 10
110.2400
 20
57.1500
 30
0.0000
 41
3.2160
 42
3.2160
 43
1.0000
 50
180.0000
  0
INSERT
  8
17
  2
SQUAREP
 10
98.0400
 20
57.1500
 30
0.0000
 41
3.2160
 42
3.2160
 43
1.0000
 50
180.0000
  0
INSERT
  8
17
  2
SQUAREP
 10
98.0400
 20
57.1500
 30
0.0000
 41
3.2160
 42
3.2160
 43
1.0000
 50
180.0000
  0
INSERT
  8
17
  2
SQUAREP
 10
77.5900
 20
40.6000
 30
0.0000
 41
1.5080
 42
1.5080
 43
1.0000
 50
270.0000
  0
INSERT
  8
17
  2
SQUAREP
 10
77.5900
 20
40.6000
 30
0.0000
 41
1.5080
 42
1.5080
 43
1.0000
 50
270.0000
  0
INSERT
  8
17
  2
SQUAREP
 10
77.5900
 20
35.6000
 30
0.0000
 41
1.5080
 42
1.5080
 43
1.0000
 50
270.0000
  0
INSERT
  8
17
  2
SQUAREP
 10
77.5900
 20
35.6000
 30
0.0000
 41
1.5080
 42
1.5080
 43
1.0000
 50
270.0000
  0
INSERT
  8
17
  2
SQUAREP
 10
77.5900
 20
38.1000
 30
0.0000
 41
1.5080
 42
1.5080
 43
1.0000
 50
270.0000
  0
INSERT
  8
17
  2
SQUAREP
 10
77.5900
 20
38.1000
 30
0.0000
 41
1.5080
 42
1.5080
 43
1.0000
 50
270.0000
  0
INSERT
  8
17
  2
SQUAREP
 10
92.0900
 20
40.6000
 30
0.0000
 41
1.5080
 42
1.5080
 43
1.0000
 50
270.0000
  0
INSERT
  8
17
  2
SQUAREP
 10
92.0900
 20
40.6000
 30
0.0000
 41
1.5080
 42
1.5080
 43
1.0000
 50
270.0000
  0
INSERT
  8
17
  2
SQUAREP
 10
92.0900
 20
35.6000
 30
0.0000
 41
1.5080
 42
1.5080
 43
1.0000
 50
270.0000
  0
INSERT
  8
17
  2
SQUAREP
 10
92.0900
 20
35.6000
 30
0.0000
 41
1.5080
 42
1.5080
 43
1.0000
 50
270.0000
  0
INSERT
  8
17
  2
SQUAREP
 10
85.0900
 20
44.2000
 30
0.0000
 41
3.2160
 42
3.2160
 43
1.0000
 50
270.0000
  0
INSERT
  8
17
  2
SQUAREP
 10
85.0900
 20
44.2000
 30
0.0000
 41
3.2160
 42
3.2160
 43
1.0000
 50
270.0000
  0
INSERT
  8
17
  2
SQUAREP
 10
85.0900
 20
32.0000
 30
0.0000
 41
3.2160
 42
3.2160
 43
1.0000
 50
270.0000
  0
INSERT
  8
17
  2
SQUAREP
 10
85.0900
 20
32.0000
 30
0.0000
 41
3.2160
 42
3.2160
 43
1.0000
 50
270.0000
  0
INSERT
  8
17
  2
SQUAREP
 10
130.6900
 20
35.6000
 30
0.0000
 41
1.5080
 42
1.5080
 43
1.0000
 50
90.0000
  0
INSERT
  8
17
  2
SQUAREP
 10
130.6900
 20
35.6000
 30
0.0000
 41
1.5080
 42
1.5080
 43
1.0000
 50
90.0000
  0
INSERT
  8
17
  2
SQUAREP
 10
130.6900
 20
40.6000
 30
0.0000
 41
1.5080
 42
1.5080
 43
1.0000
 50
90.0000
  0
INSERT
  8
17
  2
SQUAREP
 10
130.6900
 20
40.6000
 30
0.0000
 41
1.5080
 42
1.5080
 43
1.0000
 50
90.0000
  0
INSERT
  8
17
  2
SQUAREP
 10
130.6900
 20
38.1000
 30
0.0000
 41
1.5080
 42
1.5080
 43
1.0000
 50
90.0000
  0
INSERT
  8
17
  2
SQUAREP
 10
130.6900
 20
38.1000
 30
0.0000
 41
1.5080
 42
1.5080
 43
1.0000
 50
90.0000
  0
INSERT
  8
17
  2
SQUAREP
 10
116.1900
 20
35.6000
 30
0.0000
 41
1.5080
 42
1.5080
 43
1.0000
 50
90.0000
  0
INSERT
  8
17
  2
SQUAREP
 10
116.1900
 20
35.6000
 30
0.0000
 41
1.5080
 42
1.5080
 43
1.0000
 50
90.0000
  0
INSERT
  8
17
  2
SQUAREP
 10
116.1900
 20
40.6000
 30
0.0000
 41
1.5080
 42
1.5080
 43
1.0000
 50
90.0000
  0
INSERT
  8
17
  2
SQUAREP
 10
116.1900
 20
40.6000
 30
0.0000
 41
1.5080
 42
1.5080
 43
1.0000
 50
90.0000
  0
INSERT
  8
17
  2
SQUAREP
 10
123.1900
 20
32.0000
 30
0.0000
 41
3.2160
 42
3.2160
 43
1.0000
 50
90.0000
  0
INSERT
  8
17
  2
SQUAREP
 10
123.1900
 20
32.0000
 30
0.0000
 41
3.2160
 42
3.2160
 43
1.0000
 50
90.0000
  0
INSERT
  8
17
  2
SQUAREP
 10
123.1900
 20
44.2000
 30
0.0000
 41
3.2160
 42
3.2160
 43
1.0000
 50
90.0000
  0
INSERT
  8
17
  2
SQUAREP
 10
123.1900
 20
44.2000
 30
0.0000
 41
3.2160
 42
3.2160
 43
1.0000
 50
90.0000
  0
INSERT
  8
17
  2
SQUAREP
 10
101.6400
 20
11.5500
 30
0.0000
 41
1.5080
 42
1.5080
 43
1.0000
 50
0.0000
  0
INSERT
  8
17
  2
SQUAREP
 10
101.6400
 20
11.5500
 30
0.0000
 41
1.5080
 42
1.5080
 43
1.0000
 50
0.0000
  0
INSERT
  8
17
  2
SQUAREP
 10
106.6400
 20
11.5500
 30
0.0000
 41
1.5080
 42
1.5080
 43
1.0000
 50
0.0000
  0
INSERT
  8
17
  2
SQUAREP
 10
106.6400
 20
11.5500
 30
0.0000
 41
1.5080
 42
1.5080
 43
1.0000
 50
0.0000
  0
INSERT
  8
17
  2
SQUAREP
 10
104.1400
 20
11.5500
 30
0.0000
 41
1.5080
 42
1.5080
 43
1.0000
 50
0.0000
  0
INSERT
  8
17
  2
SQUAREP
 10
104.1400
 20
11.5500
 30
0.0000
 41
1.5080
 42
1.5080
 43
1.0000
 50
0.0000
  0
INSERT
  8
17
  2
SQUAREP
 10
101.6400
 20
26.0500
 30
0.0000
 41
1.5080
 42
1.5080
 43
1.0000
 50
0.0000
  0
INSERT
  8
17
  2
SQUAREP
 10
101.6400
 20
26.0500
 30
0.0000
 41
1.5080
 42
1.5080
 43
1.0000
 50
0.0000
  0
INSERT
  8
17
  2
SQUAREP
 10
106.6400
 20
26.0500
 30
0.0000
 41
1.5080
 42
1.5080
 43
1.0000
 50
0.0000
  0
INSERT
  8
17
  2
SQUAREP
 10
106.6400
 20
26.0500
 30
0.0000
 41
1.5080
 42
1.5080
 43
1.0000
 50
0.0000
  0
INSERT
  8
17
  2
SQUAREP
 10
98.0400
 20
19.0500
 30
0.0000
 41
3.2160
 42
3.2160
 43
1.0000
 50
0.0000
  0
INSERT
  8
17
  2
SQUAREP
 10
98.0400
 20
19.0500
 30
0.0000
 41
3.2160
 42
3.2160
 43
1.0000
 50
0.0000
  0
INSERT
  8
17
  2
SQUAREP
 10
110.2400
 20
19.0500
 30
0.0000
 41
3.2160
 42
3.2160
 43
1.0000
 50
0.0000
  0
INSERT
  8
17
  2
SQUAREP
 10
110.2400
 20
19.0500
 30
0.0000
 41
3.2160
 42
3.2160
 43
1.0000
 50
0.0000
  0
INSERT
  8
17
  2
ROUNDP
 10
17.7400
 20
124.4600
 30
0.0000
 41
1.4080
 42
1.4080
 43
1.0000
 50
180.0000
  0
INSERT
  8
17
  2
ROUNDP
 10
17.7400
 20
124.4600
 30
0.0000
 41
1.4080
 42
1.4080
 43
1.0000
 50
180.0000
  0
INSERT
  8
17
  2
ROUNDP
 10
15.2400
 20
124.4600
 30
0.0000
 41
1.4080
 42
1.4080
 43
1.0000
 50
180.0000
  0
INSERT
  8
17
  2
ROUNDP
 10
15.2400
 20
124.4600
 30
0.0000
 41
1.4080
 42
1.4080
 43
1.0000
 50
180.0000
  0
INSERT
  8
17
  2
ROUNDP
 10
12.7400
 20
124.4600
 30
0.0000
 41
1.4080
 42
1.4080
 43
1.0000
 50
180.0000
  0
INSERT
  8
17
  2
ROUNDP
 10
12.7400
 20
124.4600
 30
0.0000
 41
1.4080
 42
1.4080
 43
1.0000
 50
180.0000
  0
INSERT
  8
17
  2
ROUNDP
 10
30.4400
 20
124.4600
 30
0.0000
 41
1.4080
 42
1.4080
 43
1.0000
 50
180.0000
  0
INSERT
  8
17
  2
ROUNDP
 10
30.4400
 20
124.4600
 30
0.0000
 41
1.4080
 42
1.4080
 43
1.0000
 50
180.0000
  0
INSERT
  8
17
  2
ROUNDP
 10
27.9400
 20
124.4600
 30
0.0000
 41
1.4080
 42
1.4080
 43
1.0000
 50
180.0000
  0
INSERT
  8
17
  2
ROUNDP
 10
27.9400
 20
124.4600
 30
0.0000
 41
1.4080
 42
1.4080
 43
1.0000
 50
180.0000
  0
INSERT
  8
17
  2
ROUNDP
 10
25.4400
 20
124.4600
 30
0.0000
 41
1.4080
 42
1.4080
 43
1.0000
 50
180.0000
  0
INSERT
  8
17
  2
ROUNDP
 10
25.4400
 20
124.4600
 30
0.0000
 41
1.4080
 42
1.4080
 43
1.0000
 50
180.0000
  0
INSERT
  8
17
  2
ROUNDP
 10
12.7000
 20
74.9300
 30
0.0000
 41
2.2500
 42
2.2500
 43
1.0000
 50
0.0000
  0
INSERT
  8
17
  2
ROUNDP
 10
12.7000
 20
74.9300
 30
0.0000
 41
2.2500
 42
2.2500
 43
1.0000
 50
0.0000
  0
INSERT
  8
17
  2
ROUNDP
 10
19.0500
 20
77.4700
 30
0.0000
 41
2.2500
 42
2.2500
 43
1.0000
 50
0.0000
  0
INSERT
  8
17
  2
ROUNDP
 10
19.0500
 20
77.4700
 30
0.0000
 41
2.2500
 42
2.2500
 43
1.0000
 50
0.0000
  0
INSERT
  8
17
  2
ROUNDP
 10
12.7000
 20
67.3100
 30
0.0000
 41
1.5080
 42
1.5080
 43
1.0000
 50
0.0000
  0
INSERT
  8
17
  2
ROUNDP
 10
12.7000
 20
67.3100
 30
0.0000
 41
1.5080
 42
1.5080
 43
1.0000
 50
0.0000
  0
INSERT
  8
17
  2
ROUNDP
 10
20.3200
 20
67.3100
 30
0.0000
 41
1.5080
 42
1.5080
 43
1.0000
 50
0.0000
  0
INSERT
  8
17
  2
ROUNDP
 10
20.3200
 20
67.3100
 30
0.0000
 41
1.5080
 42
1.5080
 43
1.0000
 50
0.0000
  0
INSERT
  8
17
  2
ROUNDP
 10
31.7500
 20
74.9300
 30
0.0000
 41
2.2500
 42
2.2500
 43
1.0000
 50
0.0000
  0
INSERT
  8
17
  2
ROUNDP
 10
31.7500
 20
74.9300
 30
0.0000
 41
2.2500
 42
2.2500
 43
1.0000
 50
0.0000
  0
INSERT
  8
17
  2
ROUNDP
 10
38.1000
 20
77.4700
 30
0.0000
 41
2.2500
 42
2.2500
 43
1.0000
 50
0.0000
  0
INSERT
  8
17
  2
ROUNDP
 10
38.1000
 20
77.4700
 30
0.0000
 41
2.2500
 42
2.2500
 43
1.0000
 50
0.0000
  0
INSERT
  8
17
  2
ROUNDP
 10
31.7500
 20
67.3100
 30
0.0000
 41
1.5080
 42
1.5080
 43
1.0000
 50
0.0000
  0
INSERT
  8
17
  2
ROUNDP
 10
31.7500
 20
67.3100
 30
0.0000
 41
1.5080
 42
1.5080
 43
1.0000
 50
0.0000
  0
INSERT
  8
17
  2
ROUNDP
 10
39.3700
 20
67.3100
 30
0.0000
 41
1.5080
 42
1.5080
 43
1.0000
 50
0.0000
  0
INSERT
  8
17
  2
ROUNDP
 10
39.3700
 20
67.3100
 30
0.0000
 41
1.5080
 42
1.5080
 43
1.0000
 50
0.0000
  0
INSERT
  8
17
  2
ROUNDP
 10
50.8000
 20
74.9300
 30
0.0000
 41
2.2500
 42
2.2500
 43
1.0000
 50
0.0000
  0
INSERT
  8
17
  2
ROUNDP
 10
50.8000
 20
74.9300
 30
0.0000
 41
2.2500
 42
2.2500
 43
1.0000
 50
0.0000
  0
INSERT
  8
17
  2
ROUNDP
 10
57.1500
 20
77.4700
 30
0.0000
 41
2.2500
 42
2.2500
 43
1.0000
 50
0.0000
  0
INSERT
  8
17
  2
ROUNDP
 10
57.1500
 20
77.4700
 30
0.0000
 41
2.2500
 42
2.2500
 43
1.0000
 50
0.0000
  0
INSERT
  8
17
  2
ROUNDP
 10
50.8000
 20
67.3100
 30
0.0000
 41
1.5080
 42
1.5080
 43
1.0000
 50
0.0000
  0
INSERT
  8
17
  2
ROUNDP
 10
50.8000
 20
67.3100
 30
0.0000
 41
1.5080
 42
1.5080
 43
1.0000
 50
0.0000
  0
INSERT
  8
17
  2
ROUNDP
 10
58.4200
 20
67.3100
 30
0.0000
 41
1.5080
 42
1.5080
 43
1.0000
 50
0.0000
  0
INSERT
  8
17
  2
ROUNDP
 10
58.4200
 20
67.3100
 30
0.0000
 41
1.5080
 42
1.5080
 43
1.0000
 50
0.0000
  0
INSERT
  8
17
  2
ROUNDP
 10
12.7000
 20
55.8800
 30
0.0000
 41
2.2500
 42
2.2500
 43
1.0000
 50
0.0000
  0
INSERT
  8
17
  2
ROUNDP
 10
12.7000
 20
55.8800
 30
0.0000
 41
2.2500
 42
2.2500
 43
1.0000
 50
0.0000
  0
INSERT
  8
17
  2
ROUNDP
 10
19.0500
 20
58.4200
 30
0.0000
 41
2.2500
 42
2.2500
 43
1.0000
 50
0.0000
  0
INSERT
  8
17
  2
ROUNDP
 10
19.0500
 20
58.4200
 30
0.0000
 41
2.2500
 42
2.2500
 43
1.0000
 50
0.0000
  0
INSERT
  8
17
  2
ROUNDP
 10
12.7000
 20
48.2600
 30
0.0000
 41
1.5080
 42
1.5080
 43
1.0000
 50
0.0000
  0
INSERT
  8
17
  2
ROUNDP
 10
12.7000
 20
48.2600
 30
0.0000
 41
1.5080
 42
1.5080
 43
1.0000
 50
0.0000
  0
INSERT
  8
17
  2
ROUNDP
 10
20.3200
 20
48.2600
 30
0.0000
 41
1.5080
 42
1.5080
 43
1.0000
 50
0.0000
  0
INSERT
  8
17
  2
ROUNDP
 10
20.3200
 20
48.2600
 30
0.0000
 41
1.5080
 42
1.5080
 43
1.0000
 50
0.0000
  0
INSERT
  8
17
  2
ROUNDP
 10
31.7500
 20
55.8800
 30
0.0000
 41
2.2500
 42
2.2500
 43
1.0000
 50
0.0000
  0
INSERT
  8
17
  2
ROUNDP
 10
31.7500
 20
55.8800
 30
0.0000
 41
2.2500
 42
2.2500
 43
1.0000
 50
0.0000
  0
INSERT
  8
17
  2
ROUNDP
 10
38.1000
 20
58.4200
 30
0.0000
 41
2.2500
 42
2.2500
 43
1.0000
 50
0.0000
  0
INSERT
  8
17
  2
ROUNDP
 10
38.1000
 20
58.4200
 30
0.0000
 41
2.2500
 42
2.2500
 43
1.0000
 50
0.0000
  0
INSERT
  8
17
  2
ROUNDP
 10
31.7500
 20
48.2600
 30
0.0000
 41
1.5080
 42
1.5080
 43
1.0000
 50
0.0000
  0
INSERT
  8
17
  2
ROUNDP
 10
31.7500
 20
48.2600
 30
0.0000
 41
1.5080
 42
1.5080
 43
1.0000
 50
0.0000
  0
INSERT
  8
17
  2
ROUNDP
 10
39.3700
 20
48.2600
 30
0.0000
 41
1.5080
 42
1.5080
 43
1.0000
 50
0.0000
  0
INSERT
  8
17
  2
ROUNDP
 10
39.3700
 20
48.2600
 30
0.0000
 41
1.5080
 42
1.5080
 43
1.0000
 50
0.0000
  0
INSERT
  8
17
  2
ROUNDP
 10
50.8000
 20
55.8800
 30
0.0000
 41
2.2500
 42
2.2500
 43
1.0000
 50
0.0000
  0
INSERT
  8
17
  2
ROUNDP
 10
50.8000
 20
55.8800
 30
0.0000
 41
2.2500
 42
2.2500
 43
1.0000
 50
0.0000
  0
INSERT
  8
17
  2
ROUNDP
 10
57.1500
 20
58.4200
 30
0.0000
 41
2.2500
 42
2.2500
 43
1.0000
 50
0.0000
  0
INSERT
  8
17
  2
ROUNDP
 10
57.1500
 20
58.4200
 30
0.0000
 41
2.2500
 42
2.2500
 43
1.0000
 50
0.0000
  0
INSERT
  8
17
  2
ROUNDP
 10
50.8000
 20
48.2600
 30
0.0000
 41
1.5080
 42
1.5080
 43
1.0000
 50
0.0000
  0
INSERT
  8
17
  2
ROUNDP
 10
50.8000
 20
48.2600
 30
0.0000
 41
1.5080
 42
1.5080
 43
1.0000
 50
0.0000
  0
INSERT
  8
17
  2
ROUNDP
 10
58.4200
 20
48.2600
 30
0.0000
 41
1.5080
 42
1.5080
 43
1.0000
 50
0.0000
  0
INSERT
  8
17
  2
ROUNDP
 10
58.4200
 20
48.2600
 30
0.0000
 41
1.5080
 42
1.5080
 43
1.0000
 50
0.0000
  0
INSERT
  8
17
  2
ROUNDP
 10
12.7000
 20
36.8300
 30
0.0000
 41
2.2500
 42
2.2500
 43
1.0000
 50
0.0000
  0
INSERT
  8
17
  2
ROUNDP
 10
12.7000
 20
36.8300
 30
0.0000
 41
2.2500
 42
2.2500
 43
1.0000
 50
0.0000
  0
INSERT
  8
17
  2
ROUNDP
 10
19.0500
 20
39.3700
 30
0.0000
 41
2.2500
 42
2.2500
 43
1.0000
 50
0.0000
  0
INSERT
  8
17
  2
ROUNDP
 10
19.0500
 20
39.3700
 30
0.0000
 41
2.2500
 42
2.2500
 43
1.0000
 50
0.0000
  0
INSERT
  8
17
  2
ROUNDP
 10
12.7000
 20
29.2100
 30
0.0000
 41
1.5080
 42
1.5080
 43
1.0000
 50
0.0000
  0
INSERT
  8
17
  2
ROUNDP
 10
12.7000
 20
29.2100
 30
0.0000
 41
1.5080
 42
1.5080
 43
1.0000
 50
0.0000
  0
INSERT
  8
17
  2
ROUNDP
 10
20.3200
 20
29.2100
 30
0.0000
 41
1.5080
 42
1.5080
 43
1.0000
 50
0.0000
  0
INSERT
  8
17
  2
ROUNDP
 10
20.3200
 20
29.2100
 30
0.0000
 41
1.5080
 42
1.5080
 43
1.0000
 50
0.0000
  0
INSERT
  8
17
  2
ROUNDP
 10
31.7500
 20
36.8300
 30
0.0000
 41
2.2500
 42
2.2500
 43
1.0000
 50
0.0000
  0
INSERT
  8
17
  2
ROUNDP
 10
31.7500
 20
36.8300
 30
0.0000
 41
2.2500
 42
2.2500
 43
1.0000
 50
0.0000
  0
INSERT
  8
17
  2
ROUNDP
 10
38.1000
 20
39.3700
 30
0.0000
 41
2.2500
 42
2.2500
 43
1.0000
 50
0.0000
  0
INSERT
  8
17
  2
ROUNDP
 10
38.1000
 20
39.3700
 30
0.0000
 41
2.2500
 42
2.2500
 43
1.0000
 50
0.0000
  0
INSERT
  8
17
  2
ROUNDP
 10
31.7500
 20
29.2100
 30
0.0000
 41
1.5080
 42
1.5080
 43
1.0000
 50
0.0000
  0
INSERT
  8
17
  2
ROUNDP
 10
31.7500
 20
29.2100
 30
0.0000
 41
1.5080
 42
1.5080
 43
1.0000
 50
0.0000
  0
INSERT
  8
17
  2
ROUNDP
 10
39.3700
 20
29.2100
 30
0.0000
 41
1.5080
 42
1.5080
 43
1.0000
 50
0.0000
  0
INSERT
  8
17
  2
ROUNDP
 10
39.3700
 20
29.2100
 30
0.0000
 41
1.5080
 42
1.5080
 43
1.0000
 50
0.0000
  0
INSERT
  8
17
  2
ROUNDP
 10
50.8000
 20
36.8300
 30
0.0000
 41
2.2500
 42
2.2500
 43
1.0000
 50
0.0000
  0
INSERT
  8
17
  2
ROUNDP
 10
50.8000
 20
36.8300
 30
0.0000
 41
2.2500
 42
2.2500
 43
1.0000
 50
0.0000
  0
INSERT
  8
17
  2
ROUNDP
 10
57.1500
 20
39.3700
 30
0.0000
 41
2.2500
 42
2.2500
 43
1.0000
 50
0.0000
  0
INSERT
  8
17
  2
ROUNDP
 10
57.1500
 20
39.3700
 30
0.0000
 41
2.2500
 42
2.2500
 43
1.0000
 50
0.0000
  0
INSERT
  8
17
  2
ROUNDP
 10
50.8000
 20
29.2100
 30
0.0000
 41
1.5080
 42
1.5080
 43
1.0000
 50
0.0000
  0
INSERT
  8
17
  2
ROUNDP
 10
50.8000
 20
29.2100
 30
0.0000
 41
1.5080
 42
1.5080
 43
1.0000
 50
0.0000
  0
INSERT
  8
17
  2
ROUNDP
 10
58.4200
 20
29.2100
 30
0.0000
 41
1.5080
 42
1.5080
 43
1.0000
 50
0.0000
  0
INSERT
  8
17
  2
ROUNDP
 10
58.4200
 20
29.2100
 30
0.0000
 41
1.5080
 42
1.5080
 43
1.0000
 50
0.0000
  0
INSERT
  8
17
  2
ROUNDP
 10
12.7000
 20
17.7800
 30
0.0000
 41
2.2500
 42
2.2500
 43
1.0000
 50
0.0000
  0
INSERT
  8
17
  2
ROUNDP
 10
12.7000
 20
17.7800
 30
0.0000
 41
2.2500
 42
2.2500
 43
1.0000
 50
0.0000
  0
INSERT
  8
17
  2
ROUNDP
 10
19.0500
 20
20.3200
 30
0.0000
 41
2.2500
 42
2.2500
 43
1.0000
 50
0.0000
  0
INSERT
  8
17
  2
ROUNDP
 10
19.0500
 20
20.3200
 30
0.0000
 41
2.2500
 42
2.2500
 43
1.0000
 50
0.0000
  0
INSERT
  8
17
  2
ROUNDP
 10
12.7000
 20
10.1600
 30
0.0000
 41
1.5080
 42
1.5080
 43
1.0000
 50
0.0000
  0
INSERT
  8
17
  2
ROUNDP
 10
12.7000
 20
10.1600
 30
0.0000
 41
1.5080
 42
1.5080
 43
1.0000
 50
0.0000
  0
INSERT
  8
17
  2
ROUNDP
 10
20.3200
 20
10.1600
 30
0.0000
 41
1.5080
 42
1.5080
 43
1.0000
 50
0.0000
  0
INSERT
  8
17
  2
ROUNDP
 10
20.3200
 20
10.1600
 30
0.0000
 41
1.5080
 42
1.5080
 43
1.0000
 50
0.0000
  0
INSERT
  8
17
  2
ROUNDP
 10
31.7500
 20
17.7800
 30
0.0000
 41
2.2500
 42
2.2500
 43
1.0000
 50
0.0000
  0
INSERT
  8
17
  2
ROUNDP
 10
31.7500
 20
17.7800
 30
0.0000
 41
2.2500
 42
2.2500
 43
1.0000
 50
0.0000
  0
INSERT
  8
17
  2
ROUNDP
 10
38.1000
 20
20.3200
 30
0.0000
 41
2.2500
 42
2.2500
 43
1.0000
 50
0.0000
  0
INSERT
  8
17
  2
ROUNDP
 10
38.1000
 20
20.3200
 30
0.0000
 41
2.2500
 42
2.2500
 43
1.0000
 50
0.0000
  0
INSERT
  8
17
  2
ROUNDP
 10
31.7500
 20
10.1600
 30
0.0000
 41
1.5080
 42
1.5080
 43
1.0000
 50
0.0000
  0
INSERT
  8
17
  2
ROUNDP
 10
31.7500
 20
10.1600
 30
0.0000
 41
1.5080
 42
1.5080
 43
1.0000
 50
0.0000
  0
INSERT
  8
17
  2
ROUNDP
 10
39.3700
 20
10.1600
 30
0.0000
 41
1.5080
 42
1.5080
 43
1.0000
 50
0.0000
  0
INSERT
  8
17
  2
ROUNDP
 10
39.3700
 20
10.1600
 30
0.0000
 41
1.5080
 42
1.5080
 43
1.0000
 50
0.0000
  0
INSERT
  8
17
  2
ROUNDP
 10
50.8000
 20
17.7800
 30
0.0000
 41
2.2500
 42
2.2500
 43
1.0000
 50
0.0000
  0
INSERT
  8
17
  2
ROUNDP
 10
50.8000
 20
17.7800
 30
0.0000
 41
2.2500
 42
2.2500
 43
1.0000
 50
0.0000
  0
INSERT
  8
17
  2
ROUNDP
 10
57.1500
 20
20.3200
 30
0.0000
 41
2.2500
 42
2.2500
 43
1.0000
 50
0.0000
  0
INSERT
  8
17
  2
ROUNDP
 10
57.1500
 20
20.3200
 30
0.0000
 41
2.2500
 42
2.2500
 43
1.0000
 50
0.0000
  0
INSERT
  8
17
  2
ROUNDP
 10
50.8000
 20
10.1600
 30
0.0000
 41
1.5080
 42
1.5080
 43
1.0000
 50
0.0000
  0
INSERT
  8
17
  2
ROUNDP
 10
50.8000
 20
10.1600
 30
0.0000
 41
1.5080
 42
1.5080
 43
1.0000
 50
0.0000
  0
INSERT
  8
17
  2
ROUNDP
 10
58.4200
 20
10.1600
 30
0.0000
 41
1.5080
 42
1.5080
 43
1.0000
 50
0.0000
  0
INSERT
  8
17
  2
ROUNDP
 10
58.4200
 20
10.1600
 30
0.0000
 41
1.5080
 42
1.5080
 43
1.0000
 50
0.0000
  0
INSERT
  8
17
  2
SQUAREP
 10
15.2400
 20
93.9800
 30
0.0000
 41
1.5080
 42
1.5080
 43
1.0000
 50
270.0000
  0
INSERT
  8
17
  2
SQUAREP
 10
15.2400
 20
93.9800
 30
0.0000
 41
1.5080
 42
1.5080
 43
1.0000
 50
270.0000
  0
INSERT
  8
17
  2
SQUAREP
 10
20.3200
 20
116.8400
 30
0.0000
 41
1.5080
 42
1.5080
 43
1.0000
 50
270.0000
  0
INSERT
  8
17
  2
SQUAREP
 10
20.3200
 20
116.8400
 30
0.0000
 41
1.5080
 42
1.5080
 43
1.0000
 50
270.0000
  0
INSERT
  8
17
  2
SQUAREP
 10
45.7200
 20
116.8400
 30
0.0000
 41
1.5080
 42
1.5080
 43
1.0000
 50
270.0000
  0
INSERT
  8
17
  2
SQUAREP
 10
45.7200
 20
116.8400
 30
0.0000
 41
1.5080
 42
1.5080
 43
1.0000
 50
270.0000
  0
INSERT
  8
17
  2
SQUAREP
 10
22.8600
 20
116.8400
 30
0.0000
 41
1.5080
 42
1.5080
 43
1.0000
 50
270.0000
  0
INSERT
  8
17
  2
SQUAREP
 10
22.8600
 20
116.8400
 30
0.0000
 41
1.5080
 42
1.5080
 43
1.0000
 50
270.0000
  0
INSERT
  8
17
  2
SQUAREP
 10
25.4000
 20
116.8400
 30
0.0000
 41
1.5080
 42
1.5080
 43
1.0000
 50
270.0000
  0
INSERT
  8
17
  2
SQUAREP
 10
25.4000
 20
116.8400
 30
0.0000
 41
1.5080
 42
1.5080
 43
1.0000
 50
270.0000
  0
INSERT
  8
17
  2
SQUAREP
 10
38.1000
 20
93.9800
 30
0.0000
 41
1.5080
 42
1.5080
 43
1.0000
 50
270.0000
  0
INSERT
  8
17
  2
SQUAREP
 10
38.1000
 20
93.9800
 30
0.0000
 41
1.5080
 42
1.5080
 43
1.0000
 50
270.0000
  0
INSERT
  8
17
  2
SQUAREP
 10
40.6400
 20
93.9800
 30
0.0000
 41
1.5080
 42
1.5080
 43
1.0000
 50
270.0000
  0
INSERT
  8
17
  2
SQUAREP
 10
40.6400
 20
93.9800
 30
0.0000
 41
1.5080
 42
1.5080
 43
1.0000
 50
270.0000
  0
INSERT
  8
17
  2
SQUAREP
 10
35.5600
 20
93.9800
 30
0.0000
 41
1.5080
 42
1.5080
 43
1.0000
 50
270.0000
  0
INSERT
  8
17
  2
SQUAREP
 10
35.5600
 20
93.9800
 30
0.0000
 41
1.5080
 42
1.5080
 43
1.0000
 50
270.0000
  0
INSERT
  8
17
  2
SQUAREP
 10
27.9400
 20
93.9800
 30
0.0000
 41
1.5080
 42
1.5080
 43
1.0000
 50
270.0000
  0
INSERT
  8
17
  2
SQUAREP
 10
27.9400
 20
93.9800
 30
0.0000
 41
1.5080
 42
1.5080
 43
1.0000
 50
270.0000
  0
INSERT
  8
17
  2
SQUAREP
 10
43.1800
 20
116.8400
 30
0.0000
 41
1.5080
 42
1.5080
 43
1.0000
 50
270.0000
  0
INSERT
  8
17
  2
SQUAREP
 10
43.1800
 20
116.8400
 30
0.0000
 41
1.5080
 42
1.5080
 43
1.0000
 50
270.0000
  0
INSERT
  8
17
  2
SQUAREP
 10
45.7200
 20
93.9800
 30
0.0000
 41
1.5080
 42
1.5080
 43
1.0000
 50
270.0000
  0
INSERT
  8
17
  2
SQUAREP
 10
45.7200
 20
93.9800
 30
0.0000
 41
1.5080
 42
1.5080
 43
1.0000
 50
270.0000
  0
INSERT
  8
17
  2
SQUAREP
 10
40.6400
 20
116.8400
 30
0.0000
 41
1.5080
 42
1.5080
 43
1.0000
 50
270.0000
  0
INSERT
  8
17
  2
SQUAREP
 10
40.6400
 20
116.8400
 30
0.0000
 41
1.5080
 42
1.5080
 43
1.0000
 50
270.0000
  0
INSERT
  8
17
  2
SQUAREP
 10
43.1800
 20
93.9800
 30
0.0000
 41
1.5080
 42
1.5080
 43
1.0000
 50
270.0000
  0
INSERT
  8
17
  2
SQUAREP
 10
43.1800
 20
93.9800
 30
0.0000
 41
1.5080
 42
1.5080
 43
1.0000
 50
270.0000
  0
INSERT
  8
17
  2
SQUAREP
 10
33.0200
 20
93.9800
 30
0.0000
 41
1.5080
 42
1.5080
 43
1.0000
 50
270.0000
  0
INSERT
  8
17
  2
SQUAREP
 10
33.0200
 20
93.9800
 30
0.0000
 41
1.5080
 42
1.5080
 43
1.0000
 50
270.0000
  0
INSERT
  8
17
  2
SQUAREP
 10
30.4800
 20
93.9800
 30
0.0000
 41
1.5080
 42
1.5080
 43
1.0000
 50
270.0000
  0
INSERT
  8
17
  2
SQUAREP
 10
30.4800
 20
93.9800
 30
0.0000
 41
1.5080
 42
1.5080
 43
1.0000
 50
270.0000
  0
INSERT
  8
17
  2
SQUAREP
 10
25.4000
 20
93.9800
 30
0.0000
 41
1.5080
 42
1.5080
 43
1.0000
 50
270.0000
  0
INSERT
  8
17
  2
SQUAREP
 10
25.4000
 20
93.9800
 30
0.0000
 41
1.5080
 42
1.5080
 43
1.0000
 50
270.0000
  0
INSERT
  8
17
  2
SQUAREP
 10
20.3200
 20
93.9800
 30
0.0000
 41
1.5080
 42
1.5080
 43
1.0000
 50
270.0000
  0
INSERT
  8
17
  2
SQUAREP
 10
20.3200
 20
93.9800
 30
0.0000
 41
1.5080
 42
1.5080
 43
1.0000
 50
270.0000
  0
INSERT
  8
17
  2
SQUAREP
 10
17.7800
 20
93.9800
 30
0.0000
 41
1.5080
 42
1.5080
 43
1.0000
 50
270.0000
  0
INSERT
  8
17
  2
SQUAREP
 10
17.7800
 20
93.9800
 30
0.0000
 41
1.5080
 42
1.5080
 43
1.0000
 50
270.0000
  0
INSERT
  8
17
  2
SQUAREP
 10
22.8600
 20
93.9800
 30
0.0000
 41
1.5080
 42
1.5080
 43
1.0000
 50
270.0000
  0
INSERT
  8
17
  2
SQUAREP
 10
22.8600
 20
93.9800
 30
0.0000
 41
1.5080
 42
1.5080
 43
1.0000
 50
270.0000
  0
INSERT
  8
17
  2
SQUAREP
 10
33.0200
 20
116.8400
 30
0.0000
 41
1.5080
 42
1.5080
 43
1.0000
 50
270.0000
  0
INSERT
  8
17
  2
SQUAREP
 10
33.0200
 20
116.8400
 30
0.0000
 41
1.5080
 42
1.5080
 43
1.0000
 50
270.0000
  0
INSERT
  8
17
  2
SQUAREP
 10
35.5600
 20
116.8400
 30
0.0000
 41
1.5080
 42
1.5080
 43
1.0000
 50
270.0000
  0
INSERT
  8
17
  2
SQUAREP
 10
35.5600
 20
116.8400
 30
0.0000
 41
1.5080
 42
1.5080
 43
1.0000
 50
270.0000
  0
INSERT
  8
17
  2
SQUAREP
 10
38.1000
 20
116.8400
 30
0.0000
 41
1.5080
 42
1.5080
 43
1.0000
 50
270.0000
  0
INSERT
  8
17
  2
SQUAREP
 10
38.1000
 20
116.8400
 30
0.0000
 41
1.5080
 42
1.5080
 43
1.0000
 50
270.0000
  0
INSERT
  8
17
  2
SQUAREP
 10
27.9400
 20
116.8400
 30
0.0000
 41
1.5080
 42
1.5080
 43
1.0000
 50
270.0000
  0
INSERT
  8
17
  2
SQUAREP
 10
27.9400
 20
116.8400
 30
0.0000
 41
1.5080
 42
1.5080
 43
1.0000
 50
270.0000
  0
INSERT
  8
17
  2
SQUAREP
 10
30.4800
 20
116.8400
 30
0.0000
 41
1.5080
 42
1.5080
 43
1.0000
 50
270.0000
  0
INSERT
  8
17
  2
SQUAREP
 10
30.4800
 20
116.8400
 30
0.0000
 41
1.5080
 42
1.5080
 43
1.0000
 50
270.0000
  0
INSERT
  8
17
  2
SQUAREP
 10
17.7800
 20
116.8400
 30
0.0000
 41
1.5080
 42
1.5080
 43
1.0000
 50
270.0000
  0
INSERT
  8
17
  2
SQUAREP
 10
17.7800
 20
116.8400
 30
0.0000
 41
1.5080
 42
1.5080
 43
1.0000
 50
270.0000
  0
INSERT
  8
17
  2
SQUAREP
 10
15.2400
 20
116.8400
 30
0.0000
 41
1.5080
 42
1.5080
 43
1.0000
 50
270.0000
  0
INSERT
  8
17
  2
SQUAREP
 10
15.2400
 20
116.8400
 30
0.0000
 41
1.5080
 42
1.5080
 43
1.0000
 50
270.0000
  0
INSERT
  8
17
  2
SQUAREP
 10
97.7632
 20
103.1994
 30
0.0000
 41
1.5080
 42
1.5080
 43
1.0000
 50
180.0000
  0
INSERT
  8
17
  2
SQUAREP
 10
97.7632
 20
103.1994
 30
0.0000
 41
1.5080
 42
1.5080
 43
1.0000
 50
180.0000
  0
INSERT
  8
17
  2
ROUNDP
 10
110.8378
 20
96.4464
 30
0.0000
 41
1.5080
 42
1.5080
 43
1.0000
 50
180.0000
  0
INSERT
  8
17
  2
ROUNDP
 10
110.8378
 20
96.4464
 30
0.0000
 41
1.5080
 42
1.5080
 43
1.0000
 50
180.0000
  0
INSERT
  8
17
  2
ROUNDP
 10
97.7632
 20
95.5794
 30
0.0000
 41
1.5080
 42
1.5080
 43
1.0000
 50
180.0000
  0
INSERT
  8
17
  2
ROUNDP
 10
97.7632
 20
95.5794
 30
0.0000
 41
1.5080
 42
1.5080
 43
1.0000
 50
180.0000
  0
INSERT
  8
17
  2
ROUNDP
 10
110.8378
 20
98.9864
 30
0.0000
 41
1.5080
 42
1.5080
 43
1.0000
 50
180.0000
  0
INSERT
  8
17
  2
ROUNDP
 10
110.8378
 20
98.9864
 30
0.0000
 41
1.5080
 42
1.5080
 43
1.0000
 50
180.0000
  0
INSERT
  8
17
  2
ROUNDP
 10
97.7632
 20
100.6594
 30
0.0000
 41
1.5080
 42
1.5080
 43
1.0000
 50
180.0000
  0
INSERT
  8
17
  2
ROUNDP
 10
97.7632
 20
100.6594
 30
0.0000
 41
1.5080
 42
1.5080
 43
1.0000
 50
180.0000
  0
INSERT
  8
17
  2
ROUNDP
 10
97.7632
 20
98.1194
 30
0.0000
 41
1.5080
 42
1.5080
 43
1.0000
 50
180.0000
  0
INSERT
  8
17
  2
ROUNDP
 10
97.7632
 20
98.1194
 30
0.0000
 41
1.5080
 42
1.5080
 43
1.0000
 50
180.0000
  0
INSERT
  8
17
  2
SQUAREP
 10
110.8378
 20
101.5264
 30
0.0000
 41
1.5080
 42
1.5080
 43
1.0000
 50
180.0000
  0
INSERT
  8
17
  2
SQUAREP
 10
110.8378
 20
101.5264
 30
0.0000
 41
1.5080
 42
1.5080
 43
1.0000
 50
180.0000
  0
INSERT
  8
17
  2
ROUNDP
 10
31.7500
 20
110.4900
 30
0.0000
 41
1.4224
 42
1.4224
 43
1.0000
 50
180.0000
  0
INSERT
  8
17
  2
ROUNDP
 10
31.7500
 20
110.4900
 30
0.0000
 41
1.4224
 42
1.4224
 43
1.0000
 50
180.0000
  0
INSERT
  8
17
  2
ROUNDP
 10
36.8300
 20
110.4900
 30
0.0000
 41
1.4224
 42
1.4224
 43
1.0000
 50
180.0000
  0
INSERT
  8
17
  2
ROUNDP
 10
36.8300
 20
110.4900
 30
0.0000
 41
1.4224
 42
1.4224
 43
1.0000
 50
180.0000
  0
INSERT
  8
17
  2
ROUNDP
 10
39.3700
 20
110.4900
 30
0.0000
 41
1.4224
 42
1.4224
 43
1.0000
 50
180.0000
  0
INSERT
  8
17
  2
ROUNDP
 10
39.3700
 20
110.4900
 30
0.0000
 41
1.4224
 42
1.4224
 43
1.0000
 50
180.0000
  0
INSERT
  8
17
  2
ROUNDP
 10
34.2900
 20
110.4900
 30
0.0000
 41
1.4224
 42
1.4224
 43
1.0000
 50
180.0000
  0
INSERT
  8
17
  2
ROUNDP
 10
34.2900
 20
110.4900
 30
0.0000
 41
1.4224
 42
1.4224
 43
1.0000
 50
180.0000
  0
INSERT
  8
18
  2
ROUNDV
 10
86.3600
 20
66.0400
 30
0.0000
 41
0.7564
 42
0.7564
 43
1.0000
 50
0.0000
  0
INSERT
  8
18
  2
ROUNDV
 10
86.3600
 20
66.0400
 30
0.0000
 41
0.7564
 42
0.7564
 43
1.0000
 50
0.0000
  0
INSERT
  8
18
  2
ROUNDV
 10
81.2800
 20
60.9600
 30
0.0000
 41
0.7564
 42
0.7564
 43
1.0000
 50
0.0000
  0
INSERT
  8
18
  2
ROUNDV
 10
81.2800
 20
60.9600
 30
0.0000
 41
0.7564
 42
0.7564
 43
1.0000
 50
0.0000
  0
INSERT
  8
18
  2
ROUNDV
 10
63.5000
 20
116.8400
 30
0.0000
 41
0.7564
 42
0.7564
 43
1.0000
 50
0.0000
  0
INSERT
  8
18
  2
ROUNDV
 10
63.5000
 20
116.8400
 30
0.0000
 41
0.7564
 42
0.7564
 43
1.0000
 50
0.0000
  0
INSERT
  8
18
  2
ROUNDV
 10
63.5000
 20
106.6800
 30
0.0000
 41
0.7564
 42
0.7564
 43
1.0000
 50
0.0000
  0
INSERT
  8
18
  2
ROUNDV
 10
63.5000
 20
106.6800
 30
0.0000
 41
0.7564
 42
0.7564
 43
1.0000
 50
0.0000
  0
INSERT
  8
18
  2
ROUNDV
 10
66.0400
 20
116.8400
 30
0.0000
 41
0.7564
 42
0.7564
 43
1.0000
 50
0.0000
  0
INSERT
  8
18
  2
ROUNDV
 10
66.0400
 20
116.8400
 30
0.0000
 41
0.7564
 42
0.7564
 43
1.0000
 50
0.0000
  0
INSERT
  8
18
  2
ROUNDV
 10
66.0400
 20
106.6800
 30
0.0000
 41
0.7564
 42
0.7564
 43
1.0000
 50
0.0000
  0
INSERT
  8
18
  2
ROUNDV
 10
66.0400
 20
106.6800
 30
0.0000
 41
0.7564
 42
0.7564
 43
1.0000
 50
0.0000
  0
INSERT
  8
18
  2
ROUNDV
 10
83.8200
 20
73.6600
 30
0.0000
 41
0.7564
 42
0.7564
 43
1.0000
 50
0.0000
  0
INSERT
  8
18
  2
ROUNDV
 10
83.8200
 20
73.6600
 30
0.0000
 41
0.7564
 42
0.7564
 43
1.0000
 50
0.0000
  0
INSERT
  8
18
  2
ROUNDV
 10
73.6600
 20
63.5000
 30
0.0000
 41
0.7564
 42
0.7564
 43
1.0000
 50
0.0000
  0
INSERT
  8
18
  2
ROUNDV
 10
73.6600
 20
63.5000
 30
0.0000
 41
0.7564
 42
0.7564
 43
1.0000
 50
0.0000
  0
INSERT
  8
18
  2
ROUNDV
 10
98.4250
 20
8.2550
 30
0.0000
 41
0.7564
 42
0.7564
 43
1.0000
 50
0.0000
  0
INSERT
  8
18
  2
ROUNDV
 10
98.4250
 20
8.2550
 30
0.0000
 41
0.7564
 42
0.7564
 43
1.0000
 50
0.0000
  0
INSERT
  8
18
  2
ROUNDV
 10
109.2200
 20
8.2550
 30
0.0000
 41
0.7564
 42
0.7564
 43
1.0000
 50
0.0000
  0
INSERT
  8
18
  2
ROUNDV
 10
109.2200
 20
8.2550
 30
0.0000
 41
0.7564
 42
0.7564
 43
1.0000
 50
0.0000
  0
ENDSEC
  0
EOF
