M48
;GenerationSoftware,Autodesk,EAGLE,9.6.2*%
;CreationDate,2022-09-09T19:09:44Z*%
FMAT,2
ICI,OFF
METRIC,TZ,000.000
T10C0.813
T9C0.900
T8C1.000
T7C1.118
T6C1.500
T5C2.200
T4C2.286
T3C3.500
T2C4.000
%
G90
M71
T2
X69850Y60960
X112029Y114587
X31750Y80010
X50800Y60960
X31750Y60960
X69850Y80010
X50800Y80010
X69850Y22860
X50800Y22860
X31750Y22860
X69850Y41910
X50800Y41910
X31750Y41910
T3
X128083Y98279
X112029Y98787
X128083Y114333
T4
X26162Y132080
X47117Y93980
T5
X138430Y51820
X125480Y64770
X113280Y64770
X100330Y51820
X100330Y39620
X138430Y39620
X113280Y26670
X125480Y26670
T6
X66040Y25400
X72390Y66040
X27940Y44450
X34290Y46990
X46990Y44450
X53340Y46990
X66040Y44450
X72390Y46990
X27940Y25400
X34290Y27940
X46990Y25400
X53340Y27940
X34290Y66040
X72390Y27940
X46990Y82550
X53340Y85090
X66040Y82550
X72390Y85090
X27940Y63500
X46990Y63500
X53340Y66040
X66040Y63500
X27940Y82550
X34290Y85090
T7
X109390Y62045
X109950Y43180
X120110Y43180
X136525Y72390
X136525Y62230
X109390Y72205
X129540Y29210
X92710Y62865
X102870Y62865
X92710Y35560
X102870Y35560
X129200Y47980
X119040Y47980
X129540Y19050
X146050Y28575
X135890Y28575
X102235Y29210
X116840Y55340
X116840Y45180
X146050Y55880
X135890Y55880
X102235Y19050
X121920Y46180
X121920Y36020
T8
X116880Y72270
X48260Y101600
X48260Y104140
X48260Y106680
X48260Y109220
X48260Y111760
X27940Y55880
X35560Y55880
X48260Y114300
X48260Y116840
X46990Y55880
X48260Y119380
X48260Y121920
X54610Y55880
X25400Y111760
X122375Y100109
X115622Y113184
X119835Y100109
X117295Y100109
X118162Y113184
X120702Y113184
X123242Y113184
X25400Y101600
X25400Y104140
X25400Y106680
X25400Y109220
X48260Y99060
X25400Y114300
X25400Y116840
X25400Y119380
X25400Y121920
X25400Y124460
X25400Y127000
X25400Y129540
X25400Y99060
X48260Y129540
X48260Y127000
X48260Y124460
X73660Y36830
X66040Y74930
X54610Y74930
X46990Y74930
X73660Y17780
X66040Y17780
X54610Y17780
X46990Y17780
X35560Y17780
X27940Y17780
X116880Y33670
X66040Y36830
X54610Y36830
X46990Y36830
X35560Y36830
X27940Y36830
X73660Y55880
X66040Y55880
X35560Y74930
X27940Y74930
X121880Y72270
X121880Y33670
X121880Y19170
X119380Y19170
X116880Y19170
X131430Y48220
X131430Y43220
X145930Y48220
X145930Y45720
X145930Y43220
X107330Y48220
X92830Y43220
X92830Y45720
X92830Y48220
X116880Y57770
X121880Y57770
X119380Y72270
X73660Y74930
X107330Y43220
T9
X58420Y104100
X73660Y99100
X73660Y101600
X73660Y104100
X66040Y99100
X66040Y101600
X66040Y104100
X58420Y99100
X58420Y101600
X73660Y137160
X71120Y137160
X68580Y137160
X66040Y137160
T10
X62230Y91440
X62230Y101600
X69850Y91440
X69850Y101600
M30